<svg>
<symbol id="catalog-pro-img"  width="100%" height="100%" viewBox="0 0 268 200" fill="none">
<circle cx="134" cy="100" r="100" fill="#68B738"/>
<g clip-path="url(#clip0_2403_774)">
<path d="M246.236 55.5137C248.545 51.8399 251.614 48.7029 255.236 46.3137C257.236 44.9137 258.436 44.9137 259.636 47.5137C261.236 51.3137 262.636 55.3137 261.436 59.5137C261.218 60.226 261.177 60.9809 261.316 61.7128C261.456 62.4447 261.772 63.1315 262.236 63.7137C263.436 65.3137 264.436 66.9137 265.436 68.3137C266.797 70.0412 267.68 72.0963 267.996 74.2728C268.312 76.4492 268.05 78.6705 267.236 80.7137C266.502 82.6973 266.363 84.8522 266.836 86.9137C267.236 88.8937 267.236 90.9337 266.836 92.9137C266.675 94.3965 266.075 95.7975 265.113 96.9375C264.151 98.0775 262.871 98.9048 261.436 99.3137C258.878 99.8005 256.595 101.227 255.036 103.314C254.848 103.621 254.583 103.874 254.267 104.049C253.952 104.225 253.597 104.316 253.236 104.314C250.836 104.714 244.836 99.3137 244.836 96.9137V95.7137C245.036 88.5137 244.636 87.9137 238.036 84.9137C236.655 84.4265 235.417 83.6015 234.436 82.5137C233.236 80.9137 231.636 81.1137 229.836 81.7137C228.036 82.3137 227.036 83.5137 227.236 85.5137C227.84 90.3554 228.04 95.2388 227.836 100.114C227.85 100.67 227.986 101.217 228.236 101.714C234.436 110.714 236.836 121.314 239.836 131.514C242.236 139.314 246.636 143.514 254.636 144.114C255.917 144.216 257.187 144.416 258.436 144.714C260.08 144.978 261.607 145.729 262.819 146.87C264.031 148.011 264.873 149.489 265.236 151.114C266.636 155.314 265.836 156.314 261.636 156.314H248.636C246.953 156.399 245.303 155.825 244.036 154.714C242.012 153.005 239.713 151.653 237.236 150.714C234.499 149.703 232.129 147.891 230.436 145.514C228.094 142.241 225.412 139.224 222.436 136.514C216.836 130.714 210.836 125.114 205.636 119.114C201.678 115.025 199.395 109.602 199.236 103.914C199.236 102.114 198.836 101.314 196.836 102.114C196.238 102.494 195.546 102.701 194.836 102.714C189.236 102.714 186.436 106.114 184.436 111.114C182.636 115.314 180.236 119.314 178.036 123.514C176.789 126.143 176.108 129.005 176.036 131.914C176.036 136.714 177.236 138.314 181.636 139.914C184.436 140.914 187.036 141.914 188.436 144.714C190.036 147.914 189.636 148.714 186.236 148.914H172.636C171.852 148.991 171.064 148.821 170.382 148.426C169.7 148.031 169.16 147.432 168.836 146.714L165.236 140.714C164.175 139.148 163.496 137.356 163.253 135.48C163.01 133.605 163.21 131.698 163.836 129.914C164.702 126.441 164.77 122.817 164.036 119.314C163.532 116.874 163.576 114.353 164.164 111.932C164.752 109.511 165.869 107.25 167.436 105.314C168.636 103.914 168.636 103.314 166.636 102.914C158.458 101.176 150.53 98.4217 143.036 94.7137C142.983 94.7137 142.933 94.6926 142.895 94.6551C142.858 94.6176 142.836 94.5667 142.836 94.5137C136.436 92.1137 135.236 92.5137 133.436 99.1137C131.836 104.714 130.236 110.314 129.036 116.114C127.636 122.514 129.236 128.514 131.236 134.514C132.036 136.914 134.436 136.714 136.236 137.314C140.236 138.514 143.636 140.114 145.236 144.314C146.636 147.514 146.436 147.914 143.036 147.914C139.636 147.914 136.236 147.714 132.636 147.914C129.599 147.969 126.634 146.98 124.236 145.114C114.636 138.714 111.836 128.914 111.036 118.314C110.636 111.714 107.036 106.514 102.836 101.514C102.036 100.514 101.236 100.114 100.036 100.914C95.7434 103.281 91.2614 105.288 86.6365 106.914C76.985 110.322 68.5157 116.431 62.2365 124.514C59.8918 127.464 58.3732 130.984 57.8365 134.714C57.2365 138.314 58.2365 139.914 61.8365 140.914C65.4365 141.914 67.2365 143.914 67.6365 147.714C67.8365 149.314 67.2365 150.114 65.6365 150.114H49.4365C48.9063 150.076 48.393 149.911 47.9403 149.632C47.4876 149.354 47.1089 148.97 46.8365 148.514C44.3242 145.403 42.9798 141.512 43.0365 137.514C42.9315 130.604 43.5346 123.701 44.8365 116.914C45.1034 114.881 45.8623 112.944 47.0473 111.271C48.2323 109.598 49.8075 108.24 51.6365 107.314C63.4365 101.714 69.6365 91.1137 75.2365 80.1137C76.4365 77.9137 75.4365 77.5137 73.4365 77.7137C67.8391 78.4908 62.5358 80.6947 58.0365 84.1137C52.1448 88.4114 46.5949 93.1589 41.4365 98.3137C35.9358 103.901 28.6418 107.371 20.8365 108.114C6.23646 108.914 -0.56354 100.714 0.0364599 87.5137C0.170585 83.0129 1.86775 78.6993 4.83646 75.3137C5.8685 73.9757 7.27593 72.9757 8.87899 72.4413C10.4821 71.907 12.208 71.8625 13.8365 72.3137C16.8365 73.1137 17.6365 74.7137 16.4365 77.7137C15.8365 78.9137 15.0365 79.9137 14.4365 81.1137C13.5737 82.3396 12.8995 83.6879 12.4365 85.1137C10.2365 91.1137 13.2365 95.3137 19.4365 95.9137C26.0365 96.5137 31.4365 93.7137 36.4365 89.7137C42.4603 84.8902 47.8379 79.311 52.4365 73.1137C55.875 68.5885 60.2046 64.8163 65.1581 62.03C70.1116 59.2436 75.5837 57.5024 81.2365 56.9137C85.8365 56.3137 89.8365 54.3137 94.2365 53.1137C102.465 50.6049 111.034 49.3904 119.636 49.5137C123.621 49.6796 127.59 48.9269 131.236 47.3137C141.036 43.3137 151.236 43.3137 161.436 45.3137C169.436 46.9137 177.436 48.9137 185.236 50.9137C189.878 51.7787 194.651 51.6423 199.236 50.5137C208.014 48.2888 216.992 46.9488 226.036 46.5137C231.961 46.2254 237.867 47.3928 243.236 49.9137C247.236 51.7137 247.236 51.7137 246.236 55.5137Z" fill="black"/>
</g>
<defs>
<clipPath>
<rect width="268" height="112" fill="white" transform="translate(0 44)"/>
</clipPath>
</defs>
</symbol>

<symbol id="catalog-slim-img" width="100%" height="100%" viewBox="0 0 100 100" fill="none">
<circle cx="100" cy="111" r="100" fill="#68B738"/>
<g clip-path="url(#clip0_2403_755)">
<path d="M139.68 0H138.92C137.636 0.725875 136.614 1.83883 136 3.18C134.875 5.34423 134.009 7.63331 133.42 10C133.294 10.7116 132.934 11.3611 132.398 11.8462C131.863 12.3313 131.181 12.6246 130.46 12.68C128.256 13.06 126.167 13.9386 124.355 15.2489C122.542 16.5591 121.052 18.2663 120 20.24C118.553 22.8026 117.316 25.478 116.3 28.24C113.46 35.6 111.28 43.2 108.6 50.62C107.34 54 107.28 54 103.48 54C98.94 54 99.26 53.3 99.2 58.3C99.2 59.88 99.68 60.68 101.36 60.6C101.88 60.6 102.66 60.34 102.86 61.02C103.06 61.7 102.38 62 101.98 62.4C99.6086 64.8073 96.6075 66.4984 93.32 67.28C89.52 68.3 85.64 69.1 81.94 70.34C72.44 73.52 63.66 77.96 56.82 85.48C52.8206 90.1507 49.6177 95.4483 47.34 101.16C40 118.44 36.44 136.64 33.68 155.02C32.38 163.64 31.46 172.3 30.76 181.02C30.4 185.3 30 189.64 30 194H96.66C96.7707 193.12 96.6102 192.227 96.2 191.44C95.5589 189.844 94.5171 188.441 93.1753 187.365C91.8335 186.29 90.237 185.578 88.54 185.3C87.14 184.98 86.98 184.56 87.84 183.46C89.2427 181.588 90.318 179.492 91.02 177.26C94.28 167.64 95.54 157.6 97.12 147.66C98.0125 140.068 100.348 132.716 104 126C106.849 121.057 110.649 116.727 115.18 113.26C116.84 112 116.9 112 117.18 114.14C117.38 115.56 117.42 117.02 117.52 118.46C118.12 127.909 118 137.39 117.16 146.82C116.405 154.13 116.304 161.492 116.86 168.82C117.655 177.327 119.174 185.751 121.4 194H148C147.653 191.835 146.656 189.826 145.142 188.241C143.627 186.655 141.667 185.567 139.52 185.12C137.013 184.722 134.45 184.858 132 185.52C130.8 185.8 130.3 185.52 130.2 184.22C129.373 173.632 130.046 162.98 132.2 152.58C134.868 140.574 136.91 128.438 138.32 116.22C138.845 111.286 140.398 106.517 142.88 102.22C145.26 97.98 147.34 93.58 149.68 89.32C150.609 87.771 151.168 86.0286 151.314 84.2282C151.46 82.4279 151.188 80.6182 150.52 78.94C149.98 77.52 149.46 76.08 148.8 74.72C146.8 70.82 144.8 66.96 142.96 63.02C141.98 61.02 142.2 60.78 144.38 60.72C147.64 60.72 147.64 60.72 147.7 57.44C147.7 57 147.7 56.56 147.7 56.12C147.7 54.74 147.18 53.98 145.7 54.12C144.7 54.12 143.7 54.12 142.66 54.12C141.28 54.12 140.88 53.54 141.22 52.12C141.895 49.8116 143.222 47.7473 145.042 46.1755C146.862 44.6037 149.098 43.5912 151.48 43.26C155.911 42.8758 160.376 43.1657 164.72 44.12C165.221 44.2779 165.765 44.2322 166.232 43.9927C166.7 43.7531 167.055 43.3391 167.22 42.84C168.02 40.84 168.9 38.84 169.8 36.84C170.004 36.4852 170.094 36.0763 170.058 35.6686C170.023 35.2608 169.863 34.8739 169.6 34.56C163.2 26.44 156.26 18.86 146.8 14C146.343 13.8033 145.942 13.4952 145.635 13.1039C145.328 12.7127 145.123 12.2506 145.04 11.76C144.505 8.90102 143.653 6.11051 142.5 3.44C141.959 2.01723 140.969 0.809563 139.68 0V0Z" fill="black"/>
</g>
<defs>
<clipPath>
<rect  fill="white" transform="translate(30)"/>
</clipPath>
</defs>
</symbol>

<symbol id="catalog-slim-pro" width="24" height="12" viewBox="0 0 24 12" fill="none">
<line y1="6" x2="18" y2="6" stroke="black" stroke-width="2"/>
<path d="M24 6L17.25 11.1962L17.25 0.803848L24 6Z" fill="black"/>
</symbol>

<symbol id="close-nav" width="24" height="18" viewBox="0 0 24 18" fill="none">
<line y1="1.25" x2="24" y2="1.25" stroke="black" stroke-width="1.5"/>
<line y1="9.25" x2="24" y2="9.25" stroke="black" stroke-width="1.5"/>
<line y1="17.25" x2="24" y2="17.25" stroke="black" stroke-width="1.5"/>
</symbol>

<symbol id="email-stroke" width="100%" height="100%" viewBox="0 0 20 20" fill="none">
<path d="M1.5 8.5V16.5H18.5V8.5M1.5 3.5H18.5V5.5L10 11.5L1.5 5.5V3.5Z" stroke="black" stroke-linecap="round" stroke-linejoin="round"/>
</symbol>

<symbol id="htmlacademy" viewBox="0 0 60 60"><path fill="#2E368F" d="M30.2 5h-.2l-19.7 2.1v36.2l19.7 11.7 19.7-11.7v-36.2l-19.5-2.1zm17 36.8l-17.2 10.2-17.2-10.2v-14.8l17.1 10.2v1.8l-11.7-7v1.8l11.8 7.1v1.9l-11.8-7v1.8l11.8 7 11.9-7.1v-7.6l5.3-3.2v15.1zm-.1-17l-4.7 2.8-2.2 1.3-10.3-6.1v1.8l8.8 5.3h-.1l-.2.1-1.3.7-7.3-4.3v1.8l5.8 3.4-1.4.9-4.3-2.6v1.8l2.9 1.7-2.9 1.7-17-10.1 17-10.2 17.2 10zm.1-1.8l-17.3-10.2-17.1 10.2v-13.6l17.2-1.8 17.2 1.8v13.6z"/></symbol>

<symbol id="html-academy" width="27" height="34" viewBox="0 0 27 34" fill="none">
<g clip-path="url(#clip0_88237_433)">
<path d="M13.6426 0.0157537L13.5 0L0 1.40733V26.0129L13.5 34L27 26.0129V1.40733L13.6426 0.0157537ZM25.2344 25.0151L13.5 31.9573L1.76561 25.0151V14.9293L13.4507 21.8451L13.4701 23.0984L5.45351 18.3548L5.44295 19.5801L13.4894 24.3885L13.5088 25.675L5.46408 20.9174L5.45351 22.1427L13.5 26.9511L21.6239 22.1182V20.8929V16.909L25.2432 14.7595L25.2344 25.0151ZM25.2344 13.4519L22.0147 15.3319L20.5325 16.2071L13.4666 12.0201L13.456 13.2454L19.4957 16.818L19.4429 16.8495L19.3126 16.9247L18.4536 17.4166L13.4666 14.4689L13.456 15.6942L17.3921 18.0222L16.4591 18.6314L16.438 18.6436L13.4666 16.902L13.456 18.1273L15.4029 19.2615L13.4155 20.4483L1.7973 13.5762L13.4349 6.61831L25.2344 13.4519ZM25.2344 12.2266L13.4401 5.31075L1.76561 12.2196V2.9897L13.5 1.76442L25.2344 2.9897V12.2266Z" fill="#666666"/>
</g>
<defs>
<clipPath>
<rect width="27" height="34" fill="white"/>
</clipPath>
</defs>
</symbol>

<symbol id="icon_gift" width="78" height="80" viewBox="0 0 78 80" fill="none">
<path d="M64.0156 34.7127H14.031C12.2766 34.7127 10.8494 33.2951 10.8494 31.5524V22.0842C10.8494 20.3415 12.2766 18.9233 14.031 18.9233H64.0149C65.7687 18.9233 67.1953 20.3415 67.1953 22.0842V31.553C67.1959 33.2951 65.7693 34.7127 64.0156 34.7127ZM14.031 21.3455C13.6276 21.3455 13.2869 21.684 13.2869 22.0842V31.553C13.2869 31.9599 13.6208 32.2912 14.031 32.2912H64.0149C64.4244 32.2912 64.7578 31.9599 64.7578 31.553V22.0842C64.7578 21.6834 64.4171 21.3455 64.0149 21.3455H14.031Z" fill="white"/>
<path d="M57.0447 67.1488H20.999C17.6218 67.1488 14.8741 64.4191 14.8741 61.0626V33.5016C14.8741 32.8331 15.4201 32.2905 16.0929 32.2905C16.7656 32.2905 17.3116 32.8331 17.3116 33.5016V61.0626C17.3116 63.0833 18.9661 64.7267 20.999 64.7267H57.0447C59.077 64.7267 60.7308 63.0833 60.7308 61.0626V33.5016C60.7308 32.8331 61.2768 32.2905 61.9496 32.2905C62.6223 32.2905 63.1683 32.8331 63.1683 33.5016V61.0626C63.1683 64.4191 60.4213 67.1488 57.0447 67.1488Z" fill="white"/>
<path d="M39.0225 67.1488C38.3498 67.1488 37.8038 66.6069 37.8038 65.9378V33.5016C37.8038 32.8331 38.3498 32.2905 39.0225 32.2905C39.6953 32.2905 40.2413 32.8331 40.2413 33.5016V65.9372C40.2413 66.6069 39.6959 67.1488 39.0225 67.1488Z" fill="white"/>
<path d="M23.8113 21.3414C19.9966 19.2874 18.5731 14.5327 20.6383 10.7415C22.7022 6.95201 27.4864 5.53687 31.303 7.58721C37.117 10.7166 40.2565 19.4472 40.3869 19.8172L38.0877 20.6208C38.0585 20.5384 35.1256 12.3994 30.1433 9.71749C27.5078 8.30175 24.2062 9.27908 22.7821 11.8944C21.3567 14.5121 22.339 17.7941 24.9734 19.2117L23.8113 21.3414Z" fill="white"/>
<path d="M54.2313 21.3413L53.071 19.2111C54.3477 18.5238 55.2782 17.3848 55.6926 16.0035C56.1063 14.6217 55.9534 13.1624 55.2617 11.895C54.5719 10.6264 53.4263 9.70233 52.0363 9.29117C50.6457 8.88001 49.1783 9.0314 47.9023 9.71747C42.9201 12.3988 39.9871 20.5378 39.9579 20.6202L37.6587 19.8166C37.7891 19.4466 40.928 10.716 46.7421 7.58719C48.5897 6.5929 50.7182 6.3737 52.7316 6.96955C54.7468 7.56479 56.4061 8.90484 57.4061 10.7414C58.4073 12.5774 58.6285 14.6913 58.0289 16.6939C57.4287 18.6958 56.0801 20.3458 54.2313 21.3413Z" fill="white"/>
<path d="M61.9496 50.9314H16.0929C15.4201 50.9314 14.8741 50.3889 14.8741 49.7204C14.8741 49.0518 15.4201 48.5093 16.0929 48.5093H61.9496C62.6223 48.5093 63.1683 49.0518 63.1683 49.7204C63.1683 50.3889 62.6229 50.9314 61.9496 50.9314Z" fill="white"/>
</symbol>

<symbol id="icon-chemistry" width="61" height="60" viewBox="0 0 61 60" fill="none">
<rect x="0.5" width="60" height="60" fill="#68B738"/>
<path d="M28.875 16C27.2437 16 25.975 17.3594 25.975 19.0812C25.975 20.8031 27.2437 22.1625 28.875 22.1625C30.5063 22.1625 31.775 20.8031 31.775 19.0812C31.775 17.3594 30.5063 16 28.875 16ZM28.875 17.1781C29.8719 17.1781 30.5969 18.0209 30.5969 19.0812C30.5969 20.0781 29.8084 20.9844 28.875 20.9844C27.8781 20.9844 27.1531 20.1416 27.1531 19.0812C27.1531 18.0844 27.9325 17.1781 28.875 17.1781ZM18 40.7406C18 41.9188 18.4078 42.9156 19.3594 43.7313C20.3563 44.5831 21.5344 44.5106 21.5344 44.5106H40.5656C41.345 44.5106 42.3781 44.13 43.1937 43.0606C44.0366 42.0638 43.9822 40.7044 43.9822 40.7044V23.4856C43.9822 23.0506 43.8734 22.8875 43.2391 22.8875C42.6047 22.8875 42.5503 23.1594 42.5503 23.4766V40.6953C42.5322 40.9944 42.4778 41.7828 41.8072 42.4172C41.0731 43.0425 40.3572 42.9609 40.3572 42.9609C40.3572 42.9609 22.2322 42.9609 21.3259 42.9338C20.9816 42.8703 20.4197 42.7434 19.8759 42.0275C19.3684 41.3025 19.4681 40.3962 19.4681 40.3962V23.1775C19.4681 22.7153 19.2325 22.5431 18.7431 22.5431C18.2538 22.5431 18 22.7153 18 23.1231V40.7406ZM34.3125 24.4281C33.225 24.6637 32.1375 24.8088 30.0531 26.7844C27.9688 28.7781 26.4281 28.6875 24.8875 28.5969C23.3469 28.5063 21.7156 27.0563 21.4438 26.6938C21.1084 26.3403 20.5375 26.5759 20.3562 26.8116C20.2022 27.0472 20.2022 27.455 20.465 27.8084C21.7338 28.9866 22.9119 29.8928 25.1775 30.0741C27.4431 30.2916 29.6181 29.2675 31.0681 27.8084C32.5181 26.3584 33.2431 26.0866 34.3306 25.9053C36.9587 25.4884 38.4994 26.5216 39.4056 27.1741C40.4025 28.2616 40.6744 27.9534 40.9462 27.6453C41.49 26.9294 40.7197 26.3766 39.8588 25.7422C38.0463 24.5641 36.3244 24.1109 34.3306 24.4734L34.3125 24.4281ZM25.25 31.5875C24.0719 31.5875 23.1656 32.5844 23.1656 33.8531C23.1656 35.1219 24.0719 36.1188 25.25 36.1188C26.4281 36.1188 27.3344 35.1219 27.3344 33.8531C27.3344 32.5844 26.4281 31.5875 25.25 31.5875ZM37.0312 32.3669C35.4906 32.3669 34.2219 33.7262 34.2219 35.3575C34.2219 36.9888 35.4906 38.3481 37.0312 38.3481C38.5719 38.3481 39.8406 36.9888 39.8406 35.3575C39.8406 33.7262 38.5719 32.3669 37.0312 32.3669ZM37.0312 33.8169C37.8288 33.8169 38.4813 34.5147 38.4813 35.3575C38.4813 36.2184 37.8288 36.8981 37.0312 36.8981C36.2337 36.8981 35.5812 36.2003 35.5812 35.3575C35.5812 34.4966 36.2337 33.8169 37.0312 33.8169Z" fill="white"/>
</symbol>

<symbol id="icon-eat" width="61" height="60" viewBox="0 0 61 60" fill="none">
<rect x="0.5" width="60" height="60" fill="#68B738"/>
<path fill-rule="evenodd" clip-rule="evenodd" d="M36.6173 15.0761C36.991 14.9214 37.4211 15.0069 37.7071 15.2929C38.6156 16.2014 39.8038 18.1706 40.7659 21.2108C41.7373 24.2804 42.5 28.5081 42.5 34C42.5 34.5523 42.0523 35 41.5 35H38V44C38 44.5523 37.5523 45 37 45C36.4477 45 36 44.5523 36 44V16C36 15.5956 36.2436 15.2309 36.6173 15.0761ZM38 33H40.4912C40.4053 28.1836 39.7051 24.4875 38.8591 21.8142C38.5807 20.9346 38.2885 20.1715 38 19.519V33Z" fill="white"/>
<path fill-rule="evenodd" clip-rule="evenodd" d="M24 15C24.5523 15 25 15.4477 25 16V44C25 44.5523 24.5523 45 24 45C23.4477 45 23 44.5523 23 44V16C23 15.4477 23.4477 15 24 15Z" fill="white"/>
<path fill-rule="evenodd" clip-rule="evenodd" d="M19.5 15C20.0523 15 20.5 15.4477 20.5 16V21.5C20.5 22.0569 20.692 22.8152 21.2009 23.4166C21.68 23.9828 22.5145 24.5 23.9999 24.5C24.5522 24.5 24.9999 24.9477 24.9999 25.5C24.9999 26.0523 24.5522 26.5 23.9999 26.5C21.9855 26.5 20.57 25.7672 19.6741 24.7084C18.808 23.6848 18.5 22.4431 18.5 21.5V16C18.5 15.4477 18.9477 15 19.5 15Z" fill="white"/>
<path fill-rule="evenodd" clip-rule="evenodd" d="M28.5 15C27.9477 15 27.5 15.4477 27.5 16V21.5C27.5 22.0569 27.308 22.8152 26.7991 23.4166C26.32 23.9828 25.4854 24.5 23.9999 24.5C23.4476 24.5 23.0001 24.9477 23.0001 25.5C23.0001 26.0523 23.4476 26.5 23.9999 26.5C26.0144 26.5 27.43 25.7672 28.3259 24.7084C29.192 23.6848 29.5 22.4431 29.5 21.5V16C29.5 15.4477 29.0523 15 28.5 15Z" fill="white"/>
</symbol>

<symbol id="icon-leaf" width="61" height="60" viewBox="0 0 61 60" fill="none">
<rect x="0.5" width="60" height="60" fill="#68B738"/>
<g clip-path="url(#clip0_95_18)">
<path d="M43.3438 16.767C43.2434 16.317 42.8647 16 42.4325 16C42.4306 16 42.4288 16 42.4269 16C37.4891 16.033 25.4816 16.916 20.6337 24.38C18.1156 28.258 17.8991 33.293 19.9897 39.345C20.0056 39.392 20.0384 39.424 20.06 39.467C19.3128 41.44 19.0231 42.753 19.0156 42.79C18.9069 43.33 19.2303 43.862 19.7366 43.978C19.8022 43.993 19.8678 44 19.9334 44C20.3656 44 20.7547 43.679 20.8494 43.21C20.8691 43.108 23.2578 32.837 31.7028 26.832C32.1341 26.526 32.2503 25.905 31.9625 25.445C31.6747 24.985 31.0934 24.86 30.6622 25.168C25.8734 28.573 22.9241 33.176 21.1897 36.824C19.9484 32.246 20.2737 28.447 22.1759 25.519C25.9194 19.755 34.7984 18.365 40.1581 18.071C39.005 19.872 37.745 23.174 37.745 29C37.745 32.12 36.9153 34.522 35.2803 36.14C32.6591 38.731 28.4009 38.974 25.2866 38.724C24.7691 38.679 24.32 39.095 24.2806 39.646C24.2412 40.196 24.6284 40.676 25.1441 40.718C25.7675 40.769 26.4331 40.8 27.125 40.8C30.2956 40.8 33.9941 40.137 36.5544 37.606C38.5888 35.595 39.62 32.7 39.62 29.001C39.62 19.902 42.8356 17.905 42.8516 17.896C43.2416 17.687 43.4459 17.219 43.3438 16.767Z" fill="white"/>
</g>
<defs>
<clipPath>
<rect width="30" height="32" fill="white" transform="translate(15.5 14)"/>
</clipPath>
</defs>
</symbol>

<symbol id="icon-watch" width="61" height="60" viewBox="0 0 61 60" fill="none">
<rect x="0.5" width="60" height="60" fill="#68B738"/>
<path d="M23.538 15C22.475 15 22.475 16.5831 23.538 16.5831H30.1815V18.1873C23.3786 18.62 18 24.4142 18 31.4854C18 35.4959 19.7432 39.1159 22.4963 41.5539C22.9746 41.976 23.0384 42.7254 22.6026 43.1897L21.0719 44.7412C20.3279 45.4272 21.4333 46.4931 22.103 45.7438L24.1014 43.7069C24.4521 43.3692 24.973 43.2847 25.4088 43.4958C27.1274 44.3397 29.0169 44.784 30.9341 44.795C32.8513 44.8059 34.7459 44.3833 36.4742 43.5591C36.8993 43.348 37.4308 43.4325 37.771 43.7702L39.7055 45.7438C40.3858 46.377 41.3638 45.4272 40.7472 44.7412L39.3016 43.2636C38.8552 42.8098 38.919 42.0605 39.4079 41.6277C40.8584 40.3585 42.0186 38.7959 42.8106 37.0447C43.6026 35.2936 44.0081 33.3944 43.9999 31.4748C43.9999 24.4036 38.5894 18.5989 31.7759 18.1873V16.5831H38.4194C39.4823 16.5831 39.4823 15 38.4194 15H23.538ZM19.435 31.4748C19.435 24.9419 24.6116 19.6543 30.9999 19.6543C37.3777 19.6543 42.5543 24.9419 42.5543 31.4748C42.5543 38.0183 37.3777 43.3164 30.9999 43.3164C24.6222 43.3164 19.435 38.0183 19.435 31.4748ZM30.1921 23.3799C30.1921 22.2823 31.8503 22.2823 31.8503 23.3799V32.0131C31.8503 32.237 31.7607 32.4517 31.6012 32.6101C31.4418 32.7684 31.2255 32.8574 30.9999 32.8574C30.7875 32.8574 30.5836 32.7743 30.4324 32.6262C30.2812 32.478 30.1949 32.2767 30.1921 32.0658V23.3799ZM25.2175 25.9973C25.5247 25.9973 25.8194 25.8761 26.0367 25.6603C26.254 25.4446 26.3761 25.152 26.3761 24.8469C26.3761 24.5418 26.254 24.2492 26.0367 24.0334C25.8194 23.8177 25.5247 23.6965 25.2175 23.6965C24.9307 23.7239 24.6645 23.8563 24.4707 24.0681C24.277 24.2798 24.1697 24.5556 24.1697 24.8416C24.1697 25.1277 24.277 25.4034 24.4707 25.6152C24.6645 25.8269 24.9307 25.9593 25.2175 25.9867V25.9973ZM36.7718 25.9973C37.0791 25.9973 37.3738 25.8761 37.5911 25.6603C37.8083 25.4446 37.9304 25.152 37.9304 24.8469C37.9304 24.5418 37.8083 24.2492 37.5911 24.0334C37.3738 23.8177 37.0791 23.6965 36.7718 23.6965C36.485 23.7239 36.2188 23.8563 36.0251 24.0681C35.8313 24.2798 35.724 24.5556 35.724 24.8416C35.724 25.1277 35.8313 25.4034 36.0251 25.6152C36.2188 25.8269 36.485 25.9593 36.7718 25.9867V25.9973ZM26.3761 38.5882C26.3761 40.1185 24.0588 40.1185 24.0588 38.5882C24.0588 37.0579 26.3761 37.0579 26.3761 38.5882ZM30.9999 42.0288C31.1607 42.0441 31.3229 42.0259 31.4762 41.9754C31.6294 41.9248 31.7703 41.843 31.8899 41.7352C32.0094 41.6273 32.1049 41.4959 32.1703 41.3493C32.2356 41.2026 32.2694 41.044 32.2694 40.8837C32.2694 40.7233 32.2356 40.5648 32.1703 40.4181C32.1049 40.2715 32.0094 40.14 31.8899 40.0322C31.7703 39.9244 31.6294 39.8426 31.4762 39.792C31.3229 39.7414 31.1607 39.7232 30.9999 39.7386C30.7132 39.7659 30.4469 39.8984 30.2532 40.1101C30.0595 40.3219 29.9522 40.5976 29.9522 40.8837C29.9522 41.1697 30.0595 41.4455 30.2532 41.6572C30.4469 41.869 30.7132 42.0014 30.9999 42.0288ZM22.9109 31.6437C22.9263 31.8033 22.908 31.9643 22.857 32.1165C22.8061 32.2687 22.7237 32.4086 22.6151 32.5273C22.5065 32.646 22.3741 32.7408 22.2264 32.8057C22.0788 32.8706 21.919 32.9041 21.7575 32.9041C21.596 32.9041 21.4363 32.8706 21.2886 32.8057C21.141 32.7408 21.0086 32.646 20.9 32.5273C20.7914 32.4086 20.709 32.2687 20.658 32.1165C20.6071 31.9643 20.5888 31.8033 20.6042 31.6437C20.6318 31.3589 20.7652 31.0946 20.9785 30.9023C21.1917 30.7099 21.4695 30.6033 21.7575 30.6033C22.0456 30.6033 22.3234 30.7099 22.5366 30.9023C22.7499 31.0946 22.8833 31.3589 22.9109 31.6437ZM40.237 32.794C40.3978 32.8094 40.56 32.7912 40.7132 32.7406C40.8665 32.6901 41.0074 32.6082 41.127 32.5004C41.2465 32.3926 41.342 32.2611 41.4074 32.1145C41.4727 31.9679 41.5065 31.8093 41.5065 31.6489C41.5065 31.4886 41.4727 31.33 41.4074 31.1834C41.342 31.0367 41.2465 30.9053 41.127 30.7975C41.0074 30.6896 40.8665 30.6078 40.7132 30.5573C40.56 30.5067 40.3978 30.4885 40.237 30.5038C39.9502 30.5312 39.684 30.6637 39.4903 30.8754C39.2966 31.0871 39.1892 31.3629 39.1892 31.6489C39.1892 31.935 39.2966 32.2108 39.4903 32.4225C39.684 32.6342 39.9502 32.7667 40.237 32.794ZM37.9304 38.5987C37.9304 40.1185 35.6132 40.1185 35.6132 38.5882C35.6132 37.0579 37.9304 37.0579 37.9304 38.5882V38.5987Z" fill="white"/>
</symbol>

<symbol id="open-nav" width="20" height="20" viewBox="0 0 20 20" fill="none">
<line y1="-0.75" x2="24.7577" y2="-0.75" transform="matrix(0.686589 -0.727046 0.686589 0.727046 2.00171 20)" stroke="black" stroke-width="1.5"/>
<line y1="-0.75" x2="24.7577" y2="-0.75" transform="matrix(0.686589 0.727046 -0.686589 0.727046 1 2)" stroke="black" stroke-width="1.5"/>
</symbol>

<symbol id="phone-stroke" width="100%" height="100%" viewBox="0 0 20 20" fill="none">
<path d="M10 10H18.5M18.5 10L16 7.5M18.5 10L16 12.5M8.5 2.5V7.5H5.5V12.5H8.5V17.5H6C4.5 17.5 3.5 16.5 3.5 15V5C3.5 3.5 4.5 2.5 6 2.5H8.5Z" stroke="black" stroke-linecap="round" stroke-linejoin="round"/>
</symbol>

<symbol id="show-more-button" width="30" height="30" viewBox="0 0 30 30" fill="none">
<line x1="15" x2="15" y2="30" stroke="#D3D3D3" stroke-width="2"/>
<line x1="30" y1="15" y2="15" stroke="#D3D3D3" stroke-width="2"/>
</symbol>

<symbol id="site-logo" width="101" height="18" viewBox="0 0 101 18" fill="none">
<g clip-path="url(#clip0_135_3354)">
<path d="M1.26449 16.5385C0.36955 15.2762 -0.0747041 13.7627 1.02076e-05 12.2308V5.84615C-0.108365 4.29774 0.308071 2.75746 1.18546 1.46154C2.05478 0.461538 3.39829 0 5.37403 0C7.34978 0 8.61425 0.461538 9.40455 1.30769C10.2626 2.37941 10.6846 3.72136 10.59 5.07692V6.61539H6.71754V4.84615C6.74881 4.32289 6.66808 3.799 6.48045 3.30769C6.38016 3.10938 6.2212 2.9448 6.02403 2.83513C5.82686 2.72547 5.60049 2.67572 5.37403 2.69231C4.82082 2.69231 4.42568 2.84615 4.26762 3.23077C4.08883 3.77733 4.00862 4.34988 4.03053 4.92308V13.1538C3.98879 13.71 4.0978 14.267 4.34665 14.7692C4.5047 15.1538 4.89985 15.3077 5.45306 15.3077C6.00627 15.3077 6.32239 15.1538 6.48045 14.7692C6.66013 14.2494 6.74049 13.7019 6.71754 13.1538V11.3077H10.59V12.8462C10.6704 14.2238 10.2508 15.5852 9.40455 16.6923C8.61425 17.6154 7.27075 18.0769 5.37403 18.0769C3.47732 18 2.05478 17.5385 1.26449 16.5385Z" fill="#111111"/>
<path d="M15.2527 0.23077H19.7574L23.0767 17.7692H19.4413L18.8091 14.0769H16.2011L15.5689 17.7692H11.8545L15.2527 0.23077ZM18.493 11.7692L17.5446 4.92308L16.5963 11.7692H18.493Z" fill="#111111"/>
<path d="M25.8427 3.15385H23.1557V0.23077H32.5602V3.07692H29.8732V17.7692H25.8427V3.15385Z" fill="#111111"/>
<path d="M39.752 0.23077H46.7066V2.07692H42.2019V7.84615H45.8372V9.61538H42.2019V16.0769H46.7066V17.8462H39.6729V0.23077H39.752Z" fill="#111111"/>
<path d="M48.7613 0.23077H50.5L55.6369 11.8462V0.23077H57.6917V17.7692H56.1111L50.8951 5.76923V17.7692H48.7613V0.23077Z" fill="#111111"/>
<path d="M60.0626 0.23077H67.0172V2.07692H62.5125V7.84615H66.1479V9.61538H62.5125V16.0769H67.0172V17.8462H60.0626V0.23077Z" fill="#111111"/>
<path d="M69.072 0.23077H72.7074C74.1375 0.134618 75.5587 0.514353 76.7379 1.30769C77.6072 2 78.0024 3.23077 78.0024 4.84615C78.0024 7.07692 77.2911 8.46154 75.7895 8.92308L78.3185 17.6923H75.8686L73.4977 9.46154H71.5219V17.6923H68.993V0.23077H69.072ZM72.5493 7.76923C73.364 7.83458 74.1761 7.61652 74.8412 7.15385C75.3154 6.76923 75.5524 6 75.5524 4.84615C75.5743 4.27296 75.4941 3.7004 75.3154 3.15385C75.1375 2.76166 74.832 2.4373 74.446 2.23077C73.9017 1.98934 73.3042 1.8836 72.7074 1.92308H71.601V7.69231H72.5493V7.76923Z" fill="#111111"/>
<path d="M81.1635 16.4615C80.342 15.1166 79.9564 13.5617 80.0571 12V6.15385C80.0376 5.03911 80.1705 3.9268 80.4522 2.84615C80.7167 2.03863 81.2437 1.33668 81.9538 0.846152C82.8362 0.337748 83.8542 0.0967294 84.8779 0.153844C86.5375 0.153844 87.723 0.53846 88.4343 1.38461C89.2524 2.50191 89.6438 3.86237 89.5407 5.23077V5.84615H87.1698V5.30769C87.1734 4.66346 87.1205 4.0201 87.0117 3.38461C86.9451 2.98303 86.7178 2.62348 86.3795 2.38461C85.9353 2.10082 85.4081 1.96579 84.8779 2C84.3113 1.96466 83.7504 2.12843 83.2973 2.46154C83.1114 2.61401 82.9595 2.80181 82.8508 3.01344C82.742 3.22507 82.6789 3.45608 82.6651 3.69231C82.5609 4.37999 82.5081 5.07411 82.507 5.76923V12.3077C82.4488 13.3038 82.6105 14.3006 82.9812 15.2308C83.2973 15.8462 83.9296 16.0769 84.8779 16.0769C85.2524 16.1223 85.6322 16.0589 85.9697 15.8947C86.3072 15.7304 86.5873 15.4727 86.7746 15.1538C87.1922 14.1811 87.3812 13.1299 87.3278 12.0769V10.8462H85.036V9.07692H89.6197V17.7692H88.0391L87.802 15.7692C87.5948 16.4395 87.1634 17.0231 86.5763 17.4273C85.9892 17.8315 85.2801 18.0331 84.5618 18C83.9088 18.0374 83.2565 17.9164 82.6633 17.6479C82.0702 17.3794 81.5549 16.9717 81.1635 16.4615V16.4615Z" fill="#111111"/>
<path d="M94.6776 11.6154L90.8052 0.30769H93.1761L95.9421 8.76923L98.6291 0.30769H101L97.1275 11.6154V17.7692H94.7566V11.6154H94.6776Z" fill="#111111"/>
</g>
<defs>
<clipPath>
<rect width="101" height="18" fill="white"/>
</clipPath>
</defs>
</symbol>

<symbol id="slider-buttons" width="40" height="256" viewBox="0 0 40 256" fill="none">
<rect x="18" width="4" height="256" rx="2" fill="#666666"/>
<rect x="1" y="109" width="38" height="38" rx="19" fill="white"/>
<path d="M16 119L8 128L16 137V119Z" fill="#666666"/>
<path d="M32 128L24 119V137L32 128Z" fill="#666666"/>
<rect x="1" y="109" width="38" height="38" rx="19" stroke="#666666" stroke-width="2"/>
</symbol>


<symbol id="sprite" width="0" height="0">
<symbol  viewBox="0 0 268 200" fill="none">
<circle cx="134" cy="100" r="100" fill="#68B738"/>
<g clip-path="url(#clip0_2403_774)">
<path d="M246.236 55.5137C248.545 51.8399 251.614 48.7029 255.236 46.3137C257.236 44.9137 258.436 44.9137 259.636 47.5137C261.236 51.3137 262.636 55.3137 261.436 59.5137C261.218 60.226 261.177 60.9809 261.316 61.7128C261.456 62.4447 261.772 63.1315 262.236 63.7137C263.436 65.3137 264.436 66.9137 265.436 68.3137C266.797 70.0412 267.68 72.0963 267.996 74.2728C268.312 76.4492 268.05 78.6705 267.236 80.7137C266.502 82.6973 266.363 84.8522 266.836 86.9137C267.236 88.8937 267.236 90.9337 266.836 92.9137C266.675 94.3965 266.075 95.7975 265.113 96.9375C264.151 98.0775 262.871 98.9048 261.436 99.3137C258.878 99.8005 256.595 101.227 255.036 103.314C254.848 103.621 254.583 103.874 254.267 104.049C253.952 104.225 253.597 104.316 253.236 104.314C250.836 104.714 244.836 99.3137 244.836 96.9137V95.7137C245.036 88.5137 244.636 87.9137 238.036 84.9137C236.655 84.4265 235.417 83.6015 234.436 82.5137C233.236 80.9137 231.636 81.1137 229.836 81.7137C228.036 82.3137 227.036 83.5137 227.236 85.5137C227.84 90.3554 228.04 95.2388 227.836 100.114C227.85 100.67 227.986 101.217 228.236 101.714C234.436 110.714 236.836 121.314 239.836 131.514C242.236 139.314 246.636 143.514 254.636 144.114C255.917 144.216 257.187 144.416 258.436 144.714C260.08 144.978 261.607 145.729 262.819 146.87C264.031 148.011 264.873 149.489 265.236 151.114C266.636 155.314 265.836 156.314 261.636 156.314H248.636C246.953 156.399 245.303 155.825 244.036 154.714C242.012 153.005 239.713 151.653 237.236 150.714C234.499 149.703 232.129 147.891 230.436 145.514C228.094 142.241 225.412 139.224 222.436 136.514C216.836 130.714 210.836 125.114 205.636 119.114C201.678 115.025 199.395 109.602 199.236 103.914C199.236 102.114 198.836 101.314 196.836 102.114C196.238 102.494 195.546 102.701 194.836 102.714C189.236 102.714 186.436 106.114 184.436 111.114C182.636 115.314 180.236 119.314 178.036 123.514C176.789 126.143 176.108 129.005 176.036 131.914C176.036 136.714 177.236 138.314 181.636 139.914C184.436 140.914 187.036 141.914 188.436 144.714C190.036 147.914 189.636 148.714 186.236 148.914H172.636C171.852 148.991 171.064 148.821 170.382 148.426C169.7 148.031 169.16 147.432 168.836 146.714L165.236 140.714C164.175 139.148 163.496 137.356 163.253 135.48C163.01 133.605 163.21 131.698 163.836 129.914C164.702 126.441 164.77 122.817 164.036 119.314C163.532 116.874 163.576 114.353 164.164 111.932C164.752 109.511 165.869 107.25 167.436 105.314C168.636 103.914 168.636 103.314 166.636 102.914C158.458 101.176 150.53 98.4217 143.036 94.7137C142.983 94.7137 142.933 94.6926 142.895 94.6551C142.858 94.6176 142.836 94.5667 142.836 94.5137C136.436 92.1137 135.236 92.5137 133.436 99.1137C131.836 104.714 130.236 110.314 129.036 116.114C127.636 122.514 129.236 128.514 131.236 134.514C132.036 136.914 134.436 136.714 136.236 137.314C140.236 138.514 143.636 140.114 145.236 144.314C146.636 147.514 146.436 147.914 143.036 147.914C139.636 147.914 136.236 147.714 132.636 147.914C129.599 147.969 126.634 146.98 124.236 145.114C114.636 138.714 111.836 128.914 111.036 118.314C110.636 111.714 107.036 106.514 102.836 101.514C102.036 100.514 101.236 100.114 100.036 100.914C95.7434 103.281 91.2614 105.288 86.6365 106.914C76.985 110.322 68.5157 116.431 62.2365 124.514C59.8918 127.464 58.3732 130.984 57.8365 134.714C57.2365 138.314 58.2365 139.914 61.8365 140.914C65.4365 141.914 67.2365 143.914 67.6365 147.714C67.8365 149.314 67.2365 150.114 65.6365 150.114H49.4365C48.9063 150.076 48.393 149.911 47.9403 149.632C47.4876 149.354 47.1089 148.97 46.8365 148.514C44.3242 145.403 42.9798 141.512 43.0365 137.514C42.9315 130.604 43.5346 123.701 44.8365 116.914C45.1034 114.881 45.8623 112.944 47.0473 111.271C48.2323 109.598 49.8075 108.24 51.6365 107.314C63.4365 101.714 69.6365 91.1137 75.2365 80.1137C76.4365 77.9137 75.4365 77.5137 73.4365 77.7137C67.8391 78.4908 62.5358 80.6947 58.0365 84.1137C52.1448 88.4114 46.5949 93.1589 41.4365 98.3137C35.9358 103.901 28.6418 107.371 20.8365 108.114C6.23646 108.914 -0.56354 100.714 0.0364599 87.5137C0.170585 83.0129 1.86775 78.6993 4.83646 75.3137C5.8685 73.9757 7.27593 72.9757 8.87899 72.4413C10.4821 71.907 12.208 71.8625 13.8365 72.3137C16.8365 73.1137 17.6365 74.7137 16.4365 77.7137C15.8365 78.9137 15.0365 79.9137 14.4365 81.1137C13.5737 82.3396 12.8995 83.6879 12.4365 85.1137C10.2365 91.1137 13.2365 95.3137 19.4365 95.9137C26.0365 96.5137 31.4365 93.7137 36.4365 89.7137C42.4603 84.8902 47.8379 79.311 52.4365 73.1137C55.875 68.5885 60.2046 64.8163 65.1581 62.03C70.1116 59.2436 75.5837 57.5024 81.2365 56.9137C85.8365 56.3137 89.8365 54.3137 94.2365 53.1137C102.465 50.6049 111.034 49.3904 119.636 49.5137C123.621 49.6796 127.59 48.9269 131.236 47.3137C141.036 43.3137 151.236 43.3137 161.436 45.3137C169.436 46.9137 177.436 48.9137 185.236 50.9137C189.878 51.7787 194.651 51.6423 199.236 50.5137C208.014 48.2888 216.992 46.9488 226.036 46.5137C231.961 46.2254 237.867 47.3928 243.236 49.9137C247.236 51.7137 247.236 51.7137 246.236 55.5137Z" fill="black"/>
</g>
<defs>
<clipPath>
<rect width="268" height="112" fill="white" transform="translate(0 44)"/>
</clipPath>
</defs>
</symbol>

<symbol id="catalog-slim-img"  viewBox="0 0 200 211" fill="none">
<circle cx="100" cy="111" r="100" fill="#68B738"/>
<g clip-path="url(#clip0_2403_755)">
<path d="M139.68 0H138.92C137.636 0.725875 136.614 1.83883 136 3.18C134.875 5.34423 134.009 7.63331 133.42 10C133.294 10.7116 132.934 11.3611 132.398 11.8462C131.863 12.3313 131.181 12.6246 130.46 12.68C128.256 13.06 126.167 13.9386 124.355 15.2489C122.542 16.5591 121.052 18.2663 120 20.24C118.553 22.8026 117.316 25.478 116.3 28.24C113.46 35.6 111.28 43.2 108.6 50.62C107.34 54 107.28 54 103.48 54C98.94 54 99.26 53.3 99.2 58.3C99.2 59.88 99.68 60.68 101.36 60.6C101.88 60.6 102.66 60.34 102.86 61.02C103.06 61.7 102.38 62 101.98 62.4C99.6086 64.8073 96.6075 66.4984 93.32 67.28C89.52 68.3 85.64 69.1 81.94 70.34C72.44 73.52 63.66 77.96 56.82 85.48C52.8206 90.1507 49.6177 95.4483 47.34 101.16C40 118.44 36.44 136.64 33.68 155.02C32.38 163.64 31.46 172.3 30.76 181.02C30.4 185.3 30 189.64 30 194H96.66C96.7707 193.12 96.6102 192.227 96.2 191.44C95.5589 189.844 94.5171 188.441 93.1753 187.365C91.8335 186.29 90.237 185.578 88.54 185.3C87.14 184.98 86.98 184.56 87.84 183.46C89.2427 181.588 90.318 179.492 91.02 177.26C94.28 167.64 95.54 157.6 97.12 147.66C98.0125 140.068 100.348 132.716 104 126C106.849 121.057 110.649 116.727 115.18 113.26C116.84 112 116.9 112 117.18 114.14C117.38 115.56 117.42 117.02 117.52 118.46C118.12 127.909 118 137.39 117.16 146.82C116.405 154.13 116.304 161.492 116.86 168.82C117.655 177.327 119.174 185.751 121.4 194H148C147.653 191.835 146.656 189.826 145.142 188.241C143.627 186.655 141.667 185.567 139.52 185.12C137.013 184.722 134.45 184.858 132 185.52C130.8 185.8 130.3 185.52 130.2 184.22C129.373 173.632 130.046 162.98 132.2 152.58C134.868 140.574 136.91 128.438 138.32 116.22C138.845 111.286 140.398 106.517 142.88 102.22C145.26 97.98 147.34 93.58 149.68 89.32C150.609 87.771 151.168 86.0286 151.314 84.2282C151.46 82.4279 151.188 80.6182 150.52 78.94C149.98 77.52 149.46 76.08 148.8 74.72C146.8 70.82 144.8 66.96 142.96 63.02C141.98 61.02 142.2 60.78 144.38 60.72C147.64 60.72 147.64 60.72 147.7 57.44C147.7 57 147.7 56.56 147.7 56.12C147.7 54.74 147.18 53.98 145.7 54.12C144.7 54.12 143.7 54.12 142.66 54.12C141.28 54.12 140.88 53.54 141.22 52.12C141.895 49.8116 143.222 47.7473 145.042 46.1755C146.862 44.6037 149.098 43.5912 151.48 43.26C155.911 42.8758 160.376 43.1657 164.72 44.12C165.221 44.2779 165.765 44.2322 166.232 43.9927C166.7 43.7531 167.055 43.3391 167.22 42.84C168.02 40.84 168.9 38.84 169.8 36.84C170.004 36.4852 170.094 36.0763 170.058 35.6686C170.023 35.2608 169.863 34.8739 169.6 34.56C163.2 26.44 156.26 18.86 146.8 14C146.343 13.8033 145.942 13.4952 145.635 13.1039C145.328 12.7127 145.123 12.2506 145.04 11.76C144.505 8.90102 143.653 6.11051 142.5 3.44C141.959 2.01723 140.969 0.809563 139.68 0V0Z" fill="black"/>
</g>
<defs>
<clipPath>
<rect width="140" height="194" fill="white" transform="translate(30)"/>
</clipPath>
</defs>
</symbol>

<symbol id="catalog-slim-pro" width="24" height="12" viewBox="0 0 24 12" fill="none">
<line y1="6" x2="18" y2="6" stroke="black" stroke-width="2"/>
<path d="M24 6L17.25 11.1962L17.25 0.803848L24 6Z" fill="black"/>
</symbol>

<symbol id="close-nav" width="24" height="18" viewBox="0 0 24 18" fill="none">
<line y1="1.25" x2="24" y2="1.25" stroke="black" stroke-width="1.5"/>
<line y1="9.25" x2="24" y2="9.25" stroke="black" stroke-width="1.5"/>
<line y1="17.25" x2="24" y2="17.25" stroke="black" stroke-width="1.5"/>
</symbol>

<symbol id="email-stroke" width="20" height="20" viewBox="0 0 20 20" fill="none">
<path d="M1.5 8.5V16.5H18.5V8.5M1.5 3.5H18.5V5.5L10 11.5L1.5 5.5V3.5Z" stroke="black" stroke-linecap="round" stroke-linejoin="round"/>
</symbol>

<symbol id="htmlacademy" viewBox="0 0 60 60"><path fill="#2E368F" d="M30.2 5h-.2l-19.7 2.1v36.2l19.7 11.7 19.7-11.7v-36.2l-19.5-2.1zm17 36.8l-17.2 10.2-17.2-10.2v-14.8l17.1 10.2v1.8l-11.7-7v1.8l11.8 7.1v1.9l-11.8-7v1.8l11.8 7 11.9-7.1v-7.6l5.3-3.2v15.1zm-.1-17l-4.7 2.8-2.2 1.3-10.3-6.1v1.8l8.8 5.3h-.1l-.2.1-1.3.7-7.3-4.3v1.8l5.8 3.4-1.4.9-4.3-2.6v1.8l2.9 1.7-2.9 1.7-17-10.1 17-10.2 17.2 10zm.1-1.8l-17.3-10.2-17.1 10.2v-13.6l17.2-1.8 17.2 1.8v13.6z"/></symbol>

<symbol id="html-academy" width="27" height="34" viewBox="0 0 27 34" fill="none">
<g clip-path="url(#clip0_88237_433)">
<path d="M13.6426 0.0157537L13.5 0L0 1.40733V26.0129L13.5 34L27 26.0129V1.40733L13.6426 0.0157537ZM25.2344 25.0151L13.5 31.9573L1.76561 25.0151V14.9293L13.4507 21.8451L13.4701 23.0984L5.45351 18.3548L5.44295 19.5801L13.4894 24.3885L13.5088 25.675L5.46408 20.9174L5.45351 22.1427L13.5 26.9511L21.6239 22.1182V20.8929V16.909L25.2432 14.7595L25.2344 25.0151ZM25.2344 13.4519L22.0147 15.3319L20.5325 16.2071L13.4666 12.0201L13.456 13.2454L19.4957 16.818L19.4429 16.8495L19.3126 16.9247L18.4536 17.4166L13.4666 14.4689L13.456 15.6942L17.3921 18.0222L16.4591 18.6314L16.438 18.6436L13.4666 16.902L13.456 18.1273L15.4029 19.2615L13.4155 20.4483L1.7973 13.5762L13.4349 6.61831L25.2344 13.4519ZM25.2344 12.2266L13.4401 5.31075L1.76561 12.2196V2.9897L13.5 1.76442L25.2344 2.9897V12.2266Z" fill="#666666"/>
</g>
<defs>
<clipPath>
<rect width="27" height="34" fill="white"/>
</clipPath>
</defs>
</symbol>

<symbol id="icon_gift" width="78" height="80" viewBox="0 0 78 80" fill="none">
<path d="M64.0156 34.7127H14.031C12.2766 34.7127 10.8494 33.2951 10.8494 31.5524V22.0842C10.8494 20.3415 12.2766 18.9233 14.031 18.9233H64.0149C65.7687 18.9233 67.1953 20.3415 67.1953 22.0842V31.553C67.1959 33.2951 65.7693 34.7127 64.0156 34.7127ZM14.031 21.3455C13.6276 21.3455 13.2869 21.684 13.2869 22.0842V31.553C13.2869 31.9599 13.6208 32.2912 14.031 32.2912H64.0149C64.4244 32.2912 64.7578 31.9599 64.7578 31.553V22.0842C64.7578 21.6834 64.4171 21.3455 64.0149 21.3455H14.031Z" fill="white"/>
<path d="M57.0447 67.1488H20.999C17.6218 67.1488 14.8741 64.4191 14.8741 61.0626V33.5016C14.8741 32.8331 15.4201 32.2905 16.0929 32.2905C16.7656 32.2905 17.3116 32.8331 17.3116 33.5016V61.0626C17.3116 63.0833 18.9661 64.7267 20.999 64.7267H57.0447C59.077 64.7267 60.7308 63.0833 60.7308 61.0626V33.5016C60.7308 32.8331 61.2768 32.2905 61.9496 32.2905C62.6223 32.2905 63.1683 32.8331 63.1683 33.5016V61.0626C63.1683 64.4191 60.4213 67.1488 57.0447 67.1488Z" fill="white"/>
<path d="M39.0225 67.1488C38.3498 67.1488 37.8038 66.6069 37.8038 65.9378V33.5016C37.8038 32.8331 38.3498 32.2905 39.0225 32.2905C39.6953 32.2905 40.2413 32.8331 40.2413 33.5016V65.9372C40.2413 66.6069 39.6959 67.1488 39.0225 67.1488Z" fill="white"/>
<path d="M23.8113 21.3414C19.9966 19.2874 18.5731 14.5327 20.6383 10.7415C22.7022 6.95201 27.4864 5.53687 31.303 7.58721C37.117 10.7166 40.2565 19.4472 40.3869 19.8172L38.0877 20.6208C38.0585 20.5384 35.1256 12.3994 30.1433 9.71749C27.5078 8.30175 24.2062 9.27908 22.7821 11.8944C21.3567 14.5121 22.339 17.7941 24.9734 19.2117L23.8113 21.3414Z" fill="white"/>
<path d="M54.2313 21.3413L53.071 19.2111C54.3477 18.5238 55.2782 17.3848 55.6926 16.0035C56.1063 14.6217 55.9534 13.1624 55.2617 11.895C54.5719 10.6264 53.4263 9.70233 52.0363 9.29117C50.6457 8.88001 49.1783 9.0314 47.9023 9.71747C42.9201 12.3988 39.9871 20.5378 39.9579 20.6202L37.6587 19.8166C37.7891 19.4466 40.928 10.716 46.7421 7.58719C48.5897 6.5929 50.7182 6.3737 52.7316 6.96955C54.7468 7.56479 56.4061 8.90484 57.4061 10.7414C58.4073 12.5774 58.6285 14.6913 58.0289 16.6939C57.4287 18.6958 56.0801 20.3458 54.2313 21.3413Z" fill="white"/>
<path d="M61.9496 50.9314H16.0929C15.4201 50.9314 14.8741 50.3889 14.8741 49.7204C14.8741 49.0518 15.4201 48.5093 16.0929 48.5093H61.9496C62.6223 48.5093 63.1683 49.0518 63.1683 49.7204C63.1683 50.3889 62.6229 50.9314 61.9496 50.9314Z" fill="white"/>
</symbol>

<symbol id="icon-chemistry" width="61" height="60" viewBox="0 0 61 60" fill="none">
<rect x="0.5" width="60" height="60" fill="#68B738"/>
<path d="M28.875 16C27.2437 16 25.975 17.3594 25.975 19.0812C25.975 20.8031 27.2437 22.1625 28.875 22.1625C30.5063 22.1625 31.775 20.8031 31.775 19.0812C31.775 17.3594 30.5063 16 28.875 16ZM28.875 17.1781C29.8719 17.1781 30.5969 18.0209 30.5969 19.0812C30.5969 20.0781 29.8084 20.9844 28.875 20.9844C27.8781 20.9844 27.1531 20.1416 27.1531 19.0812C27.1531 18.0844 27.9325 17.1781 28.875 17.1781ZM18 40.7406C18 41.9188 18.4078 42.9156 19.3594 43.7313C20.3563 44.5831 21.5344 44.5106 21.5344 44.5106H40.5656C41.345 44.5106 42.3781 44.13 43.1937 43.0606C44.0366 42.0638 43.9822 40.7044 43.9822 40.7044V23.4856C43.9822 23.0506 43.8734 22.8875 43.2391 22.8875C42.6047 22.8875 42.5503 23.1594 42.5503 23.4766V40.6953C42.5322 40.9944 42.4778 41.7828 41.8072 42.4172C41.0731 43.0425 40.3572 42.9609 40.3572 42.9609C40.3572 42.9609 22.2322 42.9609 21.3259 42.9338C20.9816 42.8703 20.4197 42.7434 19.8759 42.0275C19.3684 41.3025 19.4681 40.3962 19.4681 40.3962V23.1775C19.4681 22.7153 19.2325 22.5431 18.7431 22.5431C18.2538 22.5431 18 22.7153 18 23.1231V40.7406ZM34.3125 24.4281C33.225 24.6637 32.1375 24.8088 30.0531 26.7844C27.9688 28.7781 26.4281 28.6875 24.8875 28.5969C23.3469 28.5063 21.7156 27.0563 21.4438 26.6938C21.1084 26.3403 20.5375 26.5759 20.3562 26.8116C20.2022 27.0472 20.2022 27.455 20.465 27.8084C21.7338 28.9866 22.9119 29.8928 25.1775 30.0741C27.4431 30.2916 29.6181 29.2675 31.0681 27.8084C32.5181 26.3584 33.2431 26.0866 34.3306 25.9053C36.9587 25.4884 38.4994 26.5216 39.4056 27.1741C40.4025 28.2616 40.6744 27.9534 40.9462 27.6453C41.49 26.9294 40.7197 26.3766 39.8588 25.7422C38.0463 24.5641 36.3244 24.1109 34.3306 24.4734L34.3125 24.4281ZM25.25 31.5875C24.0719 31.5875 23.1656 32.5844 23.1656 33.8531C23.1656 35.1219 24.0719 36.1188 25.25 36.1188C26.4281 36.1188 27.3344 35.1219 27.3344 33.8531C27.3344 32.5844 26.4281 31.5875 25.25 31.5875ZM37.0312 32.3669C35.4906 32.3669 34.2219 33.7262 34.2219 35.3575C34.2219 36.9888 35.4906 38.3481 37.0312 38.3481C38.5719 38.3481 39.8406 36.9888 39.8406 35.3575C39.8406 33.7262 38.5719 32.3669 37.0312 32.3669ZM37.0312 33.8169C37.8288 33.8169 38.4813 34.5147 38.4813 35.3575C38.4813 36.2184 37.8288 36.8981 37.0312 36.8981C36.2337 36.8981 35.5812 36.2003 35.5812 35.3575C35.5812 34.4966 36.2337 33.8169 37.0312 33.8169Z" fill="white"/>
</symbol>

<symbol id="icon-eat" width="61" height="60" viewBox="0 0 61 60" fill="none">
<rect x="0.5" width="60" height="60" fill="#68B738"/>
<path fill-rule="evenodd" clip-rule="evenodd" d="M36.6173 15.0761C36.991 14.9214 37.4211 15.0069 37.7071 15.2929C38.6156 16.2014 39.8038 18.1706 40.7659 21.2108C41.7373 24.2804 42.5 28.5081 42.5 34C42.5 34.5523 42.0523 35 41.5 35H38V44C38 44.5523 37.5523 45 37 45C36.4477 45 36 44.5523 36 44V16C36 15.5956 36.2436 15.2309 36.6173 15.0761ZM38 33H40.4912C40.4053 28.1836 39.7051 24.4875 38.8591 21.8142C38.5807 20.9346 38.2885 20.1715 38 19.519V33Z" fill="white"/>
<path fill-rule="evenodd" clip-rule="evenodd" d="M24 15C24.5523 15 25 15.4477 25 16V44C25 44.5523 24.5523 45 24 45C23.4477 45 23 44.5523 23 44V16C23 15.4477 23.4477 15 24 15Z" fill="white"/>
<path fill-rule="evenodd" clip-rule="evenodd" d="M19.5 15C20.0523 15 20.5 15.4477 20.5 16V21.5C20.5 22.0569 20.692 22.8152 21.2009 23.4166C21.68 23.9828 22.5145 24.5 23.9999 24.5C24.5522 24.5 24.9999 24.9477 24.9999 25.5C24.9999 26.0523 24.5522 26.5 23.9999 26.5C21.9855 26.5 20.57 25.7672 19.6741 24.7084C18.808 23.6848 18.5 22.4431 18.5 21.5V16C18.5 15.4477 18.9477 15 19.5 15Z" fill="white"/>
<path fill-rule="evenodd" clip-rule="evenodd" d="M28.5 15C27.9477 15 27.5 15.4477 27.5 16V21.5C27.5 22.0569 27.308 22.8152 26.7991 23.4166C26.32 23.9828 25.4854 24.5 23.9999 24.5C23.4476 24.5 23.0001 24.9477 23.0001 25.5C23.0001 26.0523 23.4476 26.5 23.9999 26.5C26.0144 26.5 27.43 25.7672 28.3259 24.7084C29.192 23.6848 29.5 22.4431 29.5 21.5V16C29.5 15.4477 29.0523 15 28.5 15Z" fill="white"/>
</symbol>

<symbol id="icon-leaf" width="61" height="60" viewBox="0 0 61 60" fill="none">
<rect x="0.5" width="60" height="60" fill="#68B738"/>
<g clip-path="url(#clip0_95_18)">
<path d="M43.3438 16.767C43.2434 16.317 42.8647 16 42.4325 16C42.4306 16 42.4288 16 42.4269 16C37.4891 16.033 25.4816 16.916 20.6337 24.38C18.1156 28.258 17.8991 33.293 19.9897 39.345C20.0056 39.392 20.0384 39.424 20.06 39.467C19.3128 41.44 19.0231 42.753 19.0156 42.79C18.9069 43.33 19.2303 43.862 19.7366 43.978C19.8022 43.993 19.8678 44 19.9334 44C20.3656 44 20.7547 43.679 20.8494 43.21C20.8691 43.108 23.2578 32.837 31.7028 26.832C32.1341 26.526 32.2503 25.905 31.9625 25.445C31.6747 24.985 31.0934 24.86 30.6622 25.168C25.8734 28.573 22.9241 33.176 21.1897 36.824C19.9484 32.246 20.2737 28.447 22.1759 25.519C25.9194 19.755 34.7984 18.365 40.1581 18.071C39.005 19.872 37.745 23.174 37.745 29C37.745 32.12 36.9153 34.522 35.2803 36.14C32.6591 38.731 28.4009 38.974 25.2866 38.724C24.7691 38.679 24.32 39.095 24.2806 39.646C24.2412 40.196 24.6284 40.676 25.1441 40.718C25.7675 40.769 26.4331 40.8 27.125 40.8C30.2956 40.8 33.9941 40.137 36.5544 37.606C38.5888 35.595 39.62 32.7 39.62 29.001C39.62 19.902 42.8356 17.905 42.8516 17.896C43.2416 17.687 43.4459 17.219 43.3438 16.767Z" fill="white"/>
</g>
<defs>
<clipPath>
<rect width="30" height="32" fill="white" transform="translate(15.5 14)"/>
</clipPath>
</defs>
</symbol>

<symbol id="icon-watch" width="61" height="60" viewBox="0 0 61 60" fill="none">
<rect x="0.5" width="60" height="60" fill="#68B738"/>
<path d="M23.538 15C22.475 15 22.475 16.5831 23.538 16.5831H30.1815V18.1873C23.3786 18.62 18 24.4142 18 31.4854C18 35.4959 19.7432 39.1159 22.4963 41.5539C22.9746 41.976 23.0384 42.7254 22.6026 43.1897L21.0719 44.7412C20.3279 45.4272 21.4333 46.4931 22.103 45.7438L24.1014 43.7069C24.4521 43.3692 24.973 43.2847 25.4088 43.4958C27.1274 44.3397 29.0169 44.784 30.9341 44.795C32.8513 44.8059 34.7459 44.3833 36.4742 43.5591C36.8993 43.348 37.4308 43.4325 37.771 43.7702L39.7055 45.7438C40.3858 46.377 41.3638 45.4272 40.7472 44.7412L39.3016 43.2636C38.8552 42.8098 38.919 42.0605 39.4079 41.6277C40.8584 40.3585 42.0186 38.7959 42.8106 37.0447C43.6026 35.2936 44.0081 33.3944 43.9999 31.4748C43.9999 24.4036 38.5894 18.5989 31.7759 18.1873V16.5831H38.4194C39.4823 16.5831 39.4823 15 38.4194 15H23.538ZM19.435 31.4748C19.435 24.9419 24.6116 19.6543 30.9999 19.6543C37.3777 19.6543 42.5543 24.9419 42.5543 31.4748C42.5543 38.0183 37.3777 43.3164 30.9999 43.3164C24.6222 43.3164 19.435 38.0183 19.435 31.4748ZM30.1921 23.3799C30.1921 22.2823 31.8503 22.2823 31.8503 23.3799V32.0131C31.8503 32.237 31.7607 32.4517 31.6012 32.6101C31.4418 32.7684 31.2255 32.8574 30.9999 32.8574C30.7875 32.8574 30.5836 32.7743 30.4324 32.6262C30.2812 32.478 30.1949 32.2767 30.1921 32.0658V23.3799ZM25.2175 25.9973C25.5247 25.9973 25.8194 25.8761 26.0367 25.6603C26.254 25.4446 26.3761 25.152 26.3761 24.8469C26.3761 24.5418 26.254 24.2492 26.0367 24.0334C25.8194 23.8177 25.5247 23.6965 25.2175 23.6965C24.9307 23.7239 24.6645 23.8563 24.4707 24.0681C24.277 24.2798 24.1697 24.5556 24.1697 24.8416C24.1697 25.1277 24.277 25.4034 24.4707 25.6152C24.6645 25.8269 24.9307 25.9593 25.2175 25.9867V25.9973ZM36.7718 25.9973C37.0791 25.9973 37.3738 25.8761 37.5911 25.6603C37.8083 25.4446 37.9304 25.152 37.9304 24.8469C37.9304 24.5418 37.8083 24.2492 37.5911 24.0334C37.3738 23.8177 37.0791 23.6965 36.7718 23.6965C36.485 23.7239 36.2188 23.8563 36.0251 24.0681C35.8313 24.2798 35.724 24.5556 35.724 24.8416C35.724 25.1277 35.8313 25.4034 36.0251 25.6152C36.2188 25.8269 36.485 25.9593 36.7718 25.9867V25.9973ZM26.3761 38.5882C26.3761 40.1185 24.0588 40.1185 24.0588 38.5882C24.0588 37.0579 26.3761 37.0579 26.3761 38.5882ZM30.9999 42.0288C31.1607 42.0441 31.3229 42.0259 31.4762 41.9754C31.6294 41.9248 31.7703 41.843 31.8899 41.7352C32.0094 41.6273 32.1049 41.4959 32.1703 41.3493C32.2356 41.2026 32.2694 41.044 32.2694 40.8837C32.2694 40.7233 32.2356 40.5648 32.1703 40.4181C32.1049 40.2715 32.0094 40.14 31.8899 40.0322C31.7703 39.9244 31.6294 39.8426 31.4762 39.792C31.3229 39.7414 31.1607 39.7232 30.9999 39.7386C30.7132 39.7659 30.4469 39.8984 30.2532 40.1101C30.0595 40.3219 29.9522 40.5976 29.9522 40.8837C29.9522 41.1697 30.0595 41.4455 30.2532 41.6572C30.4469 41.869 30.7132 42.0014 30.9999 42.0288ZM22.9109 31.6437C22.9263 31.8033 22.908 31.9643 22.857 32.1165C22.8061 32.2687 22.7237 32.4086 22.6151 32.5273C22.5065 32.646 22.3741 32.7408 22.2264 32.8057C22.0788 32.8706 21.919 32.9041 21.7575 32.9041C21.596 32.9041 21.4363 32.8706 21.2886 32.8057C21.141 32.7408 21.0086 32.646 20.9 32.5273C20.7914 32.4086 20.709 32.2687 20.658 32.1165C20.6071 31.9643 20.5888 31.8033 20.6042 31.6437C20.6318 31.3589 20.7652 31.0946 20.9785 30.9023C21.1917 30.7099 21.4695 30.6033 21.7575 30.6033C22.0456 30.6033 22.3234 30.7099 22.5366 30.9023C22.7499 31.0946 22.8833 31.3589 22.9109 31.6437ZM40.237 32.794C40.3978 32.8094 40.56 32.7912 40.7132 32.7406C40.8665 32.6901 41.0074 32.6082 41.127 32.5004C41.2465 32.3926 41.342 32.2611 41.4074 32.1145C41.4727 31.9679 41.5065 31.8093 41.5065 31.6489C41.5065 31.4886 41.4727 31.33 41.4074 31.1834C41.342 31.0367 41.2465 30.9053 41.127 30.7975C41.0074 30.6896 40.8665 30.6078 40.7132 30.5573C40.56 30.5067 40.3978 30.4885 40.237 30.5038C39.9502 30.5312 39.684 30.6637 39.4903 30.8754C39.2966 31.0871 39.1892 31.3629 39.1892 31.6489C39.1892 31.935 39.2966 32.2108 39.4903 32.4225C39.684 32.6342 39.9502 32.7667 40.237 32.794ZM37.9304 38.5987C37.9304 40.1185 35.6132 40.1185 35.6132 38.5882C35.6132 37.0579 37.9304 37.0579 37.9304 38.5882V38.5987Z" fill="white"/>
</symbol>

<symbol id="open-nav" width="20" height="20" viewBox="0 0 20 20" fill="none">
<line y1="-0.75" x2="24.7577" y2="-0.75" transform="matrix(0.686589 -0.727046 0.686589 0.727046 2.00171 20)" stroke="black" stroke-width="1.5"/>
<line y1="-0.75" x2="24.7577" y2="-0.75" transform="matrix(0.686589 0.727046 -0.686589 0.727046 1 2)" stroke="black" stroke-width="1.5"/>
</symbol>

<symbol id="phone-stroke" width="20" height="20" viewBox="0 0 20 20" fill="none">
<path d="M10 10H18.5M18.5 10L16 7.5M18.5 10L16 12.5M8.5 2.5V7.5H5.5V12.5H8.5V17.5H6C4.5 17.5 3.5 16.5 3.5 15V5C3.5 3.5 4.5 2.5 6 2.5H8.5Z" stroke="black" stroke-linecap="round" stroke-linejoin="round"/>
</symbol>

<symbol id="show-more-button" width="30" height="30" viewBox="0 0 30 30" fill="none">
<line x1="15" x2="15" y2="30" stroke="#D3D3D3" stroke-width="2"/>
<line x1="30" y1="15" y2="15" stroke="#D3D3D3" stroke-width="2"/>
</symbol>

<symbol id="site-logo" width="101" height="18" viewBox="0 0 101 18" fill="none">
<g clip-path="url(#clip0_135_3354)">
<path d="M1.26449 16.5385C0.36955 15.2762 -0.0747041 13.7627 1.02076e-05 12.2308V5.84615C-0.108365 4.29774 0.308071 2.75746 1.18546 1.46154C2.05478 0.461538 3.39829 0 5.37403 0C7.34978 0 8.61425 0.461538 9.40455 1.30769C10.2626 2.37941 10.6846 3.72136 10.59 5.07692V6.61539H6.71754V4.84615C6.74881 4.32289 6.66808 3.799 6.48045 3.30769C6.38016 3.10938 6.2212 2.9448 6.02403 2.83513C5.82686 2.72547 5.60049 2.67572 5.37403 2.69231C4.82082 2.69231 4.42568 2.84615 4.26762 3.23077C4.08883 3.77733 4.00862 4.34988 4.03053 4.92308V13.1538C3.98879 13.71 4.0978 14.267 4.34665 14.7692C4.5047 15.1538 4.89985 15.3077 5.45306 15.3077C6.00627 15.3077 6.32239 15.1538 6.48045 14.7692C6.66013 14.2494 6.74049 13.7019 6.71754 13.1538V11.3077H10.59V12.8462C10.6704 14.2238 10.2508 15.5852 9.40455 16.6923C8.61425 17.6154 7.27075 18.0769 5.37403 18.0769C3.47732 18 2.05478 17.5385 1.26449 16.5385Z" fill="#111111"/>
<path d="M15.2527 0.23077H19.7574L23.0767 17.7692H19.4413L18.8091 14.0769H16.2011L15.5689 17.7692H11.8545L15.2527 0.23077ZM18.493 11.7692L17.5446 4.92308L16.5963 11.7692H18.493Z" fill="#111111"/>
<path d="M25.8427 3.15385H23.1557V0.23077H32.5602V3.07692H29.8732V17.7692H25.8427V3.15385Z" fill="#111111"/>
<path d="M39.752 0.23077H46.7066V2.07692H42.2019V7.84615H45.8372V9.61538H42.2019V16.0769H46.7066V17.8462H39.6729V0.23077H39.752Z" fill="#111111"/>
<path d="M48.7613 0.23077H50.5L55.6369 11.8462V0.23077H57.6917V17.7692H56.1111L50.8951 5.76923V17.7692H48.7613V0.23077Z" fill="#111111"/>
<path d="M60.0626 0.23077H67.0172V2.07692H62.5125V7.84615H66.1479V9.61538H62.5125V16.0769H67.0172V17.8462H60.0626V0.23077Z" fill="#111111"/>
<path d="M69.072 0.23077H72.7074C74.1375 0.134618 75.5587 0.514353 76.7379 1.30769C77.6072 2 78.0024 3.23077 78.0024 4.84615C78.0024 7.07692 77.2911 8.46154 75.7895 8.92308L78.3185 17.6923H75.8686L73.4977 9.46154H71.5219V17.6923H68.993V0.23077H69.072ZM72.5493 7.76923C73.364 7.83458 74.1761 7.61652 74.8412 7.15385C75.3154 6.76923 75.5524 6 75.5524 4.84615C75.5743 4.27296 75.4941 3.7004 75.3154 3.15385C75.1375 2.76166 74.832 2.4373 74.446 2.23077C73.9017 1.98934 73.3042 1.8836 72.7074 1.92308H71.601V7.69231H72.5493V7.76923Z" fill="#111111"/>
<path d="M81.1635 16.4615C80.342 15.1166 79.9564 13.5617 80.0571 12V6.15385C80.0376 5.03911 80.1705 3.9268 80.4522 2.84615C80.7167 2.03863 81.2437 1.33668 81.9538 0.846152C82.8362 0.337748 83.8542 0.0967294 84.8779 0.153844C86.5375 0.153844 87.723 0.53846 88.4343 1.38461C89.2524 2.50191 89.6438 3.86237 89.5407 5.23077V5.84615H87.1698V5.30769C87.1734 4.66346 87.1205 4.0201 87.0117 3.38461C86.9451 2.98303 86.7178 2.62348 86.3795 2.38461C85.9353 2.10082 85.4081 1.96579 84.8779 2C84.3113 1.96466 83.7504 2.12843 83.2973 2.46154C83.1114 2.61401 82.9595 2.80181 82.8508 3.01344C82.742 3.22507 82.6789 3.45608 82.6651 3.69231C82.5609 4.37999 82.5081 5.07411 82.507 5.76923V12.3077C82.4488 13.3038 82.6105 14.3006 82.9812 15.2308C83.2973 15.8462 83.9296 16.0769 84.8779 16.0769C85.2524 16.1223 85.6322 16.0589 85.9697 15.8947C86.3072 15.7304 86.5873 15.4727 86.7746 15.1538C87.1922 14.1811 87.3812 13.1299 87.3278 12.0769V10.8462H85.036V9.07692H89.6197V17.7692H88.0391L87.802 15.7692C87.5948 16.4395 87.1634 17.0231 86.5763 17.4273C85.9892 17.8315 85.2801 18.0331 84.5618 18C83.9088 18.0374 83.2565 17.9164 82.6633 17.6479C82.0702 17.3794 81.5549 16.9717 81.1635 16.4615V16.4615Z" fill="#111111"/>
<path d="M94.6776 11.6154L90.8052 0.30769H93.1761L95.9421 8.76923L98.6291 0.30769H101L97.1275 11.6154V17.7692H94.7566V11.6154H94.6776Z" fill="#111111"/>
</g>
<defs>
<clipPath>
<rect width="101" height="18" fill="white"/>
</clipPath>
</defs>
</symbol>

<symbol id="slider-buttons" width="40" height="256" viewBox="0 0 40 256" fill="none">
<rect x="18" width="4" height="256" rx="2" fill="#666666"/>
<rect x="1" y="109" width="38" height="38" rx="19" fill="white"/>
<path d="M16 119L8 128L16 137V119Z" fill="#666666"/>
<path d="M32 128L24 119V137L32 128Z" fill="#666666"/>
<rect x="1" y="109" width="38" height="38" rx="19" stroke="#666666" stroke-width="2"/>
</symbol>


<symbol id="sprite" width="0" height="0">
<symbol width="24" height="18" viewBox="0 0 24 18" fill="none">
<line y1="1.25" x2="24" y2="1.25" stroke="black" stroke-width="1.5"/>
<line y1="9.25" x2="24" y2="9.25" stroke="black" stroke-width="1.5"/>
<line y1="17.25" x2="24" y2="17.25" stroke="black" stroke-width="1.5"/>
</symbol>

<symbol id="open-nav" width="20" height="20" viewBox="0 0 20 20" fill="none">
<line y1="-0.75" x2="24.7577" y2="-0.75" transform="matrix(0.686589 -0.727046 0.686589 0.727046 2.00171 20)" stroke="black" stroke-width="1.5"/>
<line y1="-0.75" x2="24.7577" y2="-0.75" transform="matrix(0.686589 0.727046 -0.686589 0.727046 1 2)" stroke="black" stroke-width="1.5"/>
</symbol>

</symbol>

<symbol id="telegram" width="29" height="22" viewBox="0 0 29 22" fill="none">
<path fill-rule="evenodd" clip-rule="evenodd" d="M23.9608 3.15291C24.1393 3.30222 24.2255 3.5349 24.1872 3.76448L21.5611 19.5214C21.5244 19.7411 21.3789 19.9273 21.1745 20.0159C20.97 20.1045 20.7346 20.0833 20.5493 19.9597L12.6708 14.7074C12.5177 14.6054 12.4145 14.4437 12.3862 14.2619C12.358 14.08 12.4074 13.8947 12.5223 13.751L15.133 10.4877L10.773 13.3944C10.577 13.525 10.326 13.5407 10.1152 13.4353L4.86293 10.8092C4.62769 10.6915 4.48535 10.4449 4.5012 10.1824C4.51705 9.91983 4.68804 9.6921 4.93573 9.60364L23.3188 3.03826C23.538 2.95998 23.7822 3.00359 23.9608 3.15291ZM6.82626 10.3228L10.3617 12.0905L17.9231 7.0495C18.1925 6.86994 18.5525 6.91349 18.7712 7.1521C18.99 7.3907 19.0022 7.75314 18.8 8.00591L13.995 14.0121L20.4328 18.3039L22.7083 4.65058L6.82626 10.3228Z" fill="#666666"/>
</symbol>

<symbol id="vkontakte" width="29" height="22" viewBox="0 0 29 22" fill="none">
<g clip-path="url(#clip0_88237_424)">
<path d="M1.5 5.33876C1.5 4.48373 2.0151 4.02268 3.04531 3.95562L7.01515 3.98077C7.28158 3.98077 7.45921 4.10651 7.54802 4.35799C7.95655 5.61538 8.41392 6.70094 8.92014 7.61465C9.42637 8.52835 10.088 9.58038 10.9051 10.7707C10.9761 10.9216 11.0916 10.997 11.2514 10.997C11.3758 10.997 11.4735 10.9384 11.5445 10.821L11.6244 10.5444L11.6511 6.19379C11.6511 5.89201 11.5756 5.69083 11.4246 5.59024C11.2736 5.48965 10.9939 5.4142 10.5853 5.36391C10.2656 5.31361 10.1058 5.12919 10.1058 4.81065C10.1058 4.74359 10.1146 4.69329 10.1324 4.65976C10.5054 3.57002 11.5711 3.02515 13.3296 3.02515L14.8216 3C15.4966 3 16.0561 3.15927 16.5001 3.47781C16.9442 3.79635 17.1662 4.29931 17.1662 4.98669V10.6953C17.2906 10.7791 17.406 10.821 17.5126 10.821C17.779 10.821 18.0099 10.6701 18.2053 10.3683C20.1592 7.78649 21.216 6.05966 21.3759 5.18787C21.3759 5.1711 21.3936 5.12919 21.4291 5.06213C21.5535 4.81065 21.7577 4.5927 22.0419 4.40828C22.3261 4.22387 22.5748 4.09813 22.788 4.03107C22.859 3.99753 22.9389 3.98077 23.0277 3.98077H27.1574L27.4239 4.00592C27.7791 4.00592 28.0544 4.16519 28.2498 4.48373C28.3209 4.58432 28.3697 4.69329 28.3964 4.81065C28.423 4.92801 28.4408 5.04536 28.4496 5.16272C28.4585 5.28008 28.463 5.34714 28.463 5.36391V5.53994C28.3386 6.22732 28.0233 6.9608 27.5171 7.74038C27.0109 8.51997 26.367 9.36243 25.5855 10.2678C24.804 11.1731 24.3155 11.7682 24.1201 12.0533C23.9603 12.2544 23.8803 12.4389 23.8803 12.6065C23.8803 12.7406 23.9514 12.8915 24.0935 13.0592L27.9834 17.6864C28.1965 17.9546 28.3031 18.248 28.3031 18.5666C28.3031 18.9522 28.1432 19.2707 27.8235 19.5222C27.5038 19.7737 27.1219 19.9162 26.6779 19.9497L26.2249 19.9749H22.1752C22.1574 19.9749 22.1219 19.979 22.0686 19.9874C22.0153 19.9958 21.9798 20 21.962 20C21.5712 20 21.2071 19.8407 20.8696 19.5222C20.7453 19.3881 19.9105 18.3989 18.3652 16.5547C18.2764 16.4374 18.152 16.3284 17.9922 16.2278C17.9211 16.4961 17.8279 16.8817 17.7124 17.3846C17.597 17.8876 17.5126 18.248 17.4593 18.466L17.3794 18.8935C17.2018 19.4803 16.8287 19.8323 16.2604 19.9497L15.8874 19.9749H13.2763C11.8021 19.9749 10.3322 19.3378 8.86686 18.0636C7.40148 16.7894 6.08264 15.1423 4.91034 13.122C3.73803 11.1018 2.64566 8.75049 1.63322 6.06805C1.54441 5.8501 1.5 5.607 1.5 5.33876ZM17.5126 11.8521C17.1396 11.8521 16.8021 11.7557 16.5001 11.5629C16.1982 11.3701 16.0472 11.106 16.0472 10.7707V4.98669C16.0472 4.65138 15.9584 4.41248 15.7808 4.26997C15.6032 4.12747 15.2923 4.05621 14.8483 4.05621L13.3296 4.10651C12.5658 4.10651 11.9886 4.23225 11.5978 4.48373C12.3793 4.8358 12.7701 5.40582 12.7701 6.19379V10.6198C12.7346 11.039 12.5569 11.3868 12.2372 11.6635C11.9175 11.9401 11.5623 12.0784 11.1715 12.0784C10.6386 12.0784 10.2301 11.8353 9.94591 11.3491C8.56046 9.37081 7.53025 7.4931 6.85529 5.71598L6.6155 5.06213L3.07195 5.03698C2.84104 5.03698 2.71227 5.04956 2.68562 5.0747C2.65898 5.09985 2.64566 5.1711 2.64566 5.28846C2.64566 5.43935 2.66342 5.59862 2.69895 5.76627L3.25845 7.17456C4.75048 10.8126 6.37127 13.6795 8.12085 15.7751C9.87042 17.8708 11.5889 18.9186 13.2763 18.9186H15.9406C16.0472 18.9186 16.1271 18.8893 16.1804 18.8306C16.2337 18.7719 16.2781 18.6588 16.3136 18.4911L16.3669 18.2396L16.8732 16.0266C17.0152 15.7249 17.1396 15.5237 17.2462 15.4231C17.4415 15.2387 17.6725 15.1465 17.9389 15.1465C18.3652 15.1465 18.8003 15.3895 19.2444 15.8757L21.5091 18.5917C21.6512 18.8097 21.8022 18.9186 21.962 18.9186H26.3581C26.891 18.9186 27.1574 18.7929 27.1574 18.5414C27.1574 18.4576 27.1308 18.3738 27.0775 18.2899L23.2142 13.7382C22.9123 13.3861 22.7613 13.0089 22.7613 12.6065C22.7613 12.2041 22.9034 11.8185 23.1876 11.4497C23.4185 11.1144 23.867 10.557 24.5331 9.77737C25.1992 8.99778 25.7809 8.26849 26.2782 7.5895C26.7756 6.9105 27.1042 6.29438 27.264 5.74112L27.3439 5.4142C27.3262 5.38067 27.3173 5.32618 27.3173 5.25074C27.3173 5.1753 27.3084 5.11243 27.2907 5.06213H23.1077C22.8412 5.16272 22.6281 5.31361 22.4682 5.51479L22.3084 5.9926C21.8643 7.14941 20.7009 8.93491 18.8181 11.3491C18.4451 11.6844 18.0099 11.8521 17.5126 11.8521Z" fill="#666666"/>
</g>
<defs>
<clipPath>
<rect width="28" height="22" fill="white" transform="translate(0.5)"/>
</clipPath>
</defs>
</symbol>

<symbol id="youtube" width="29" height="22" viewBox="0 0 29 22" fill="none">
<path d="M18.3509 10.7927L13.1145 7.30184C13.0159 7.23691 12.9016 7.19985 12.7837 7.19459C12.6657 7.18934 12.5486 7.21608 12.4446 7.27198C12.3406 7.32789 12.2537 7.41087 12.193 7.51215C12.1324 7.61343 12.1002 7.72924 12.1 7.84729V14.8291C12.1001 14.9481 12.1327 15.0648 12.1942 15.1667C12.2557 15.2686 12.3438 15.3518 12.4491 15.4073C12.5524 15.4631 12.6691 15.4895 12.7864 15.4837C12.9037 15.478 13.0172 15.4402 13.1145 15.3746L18.3509 11.8837C18.4409 11.8239 18.5148 11.7429 18.5658 11.6477C18.6169 11.5526 18.6436 11.4462 18.6436 11.3382C18.6436 11.2302 18.6169 11.1239 18.5658 11.0287C18.5148 10.9335 18.4409 10.8525 18.3509 10.7927ZM13.4091 13.6073V9.06911L16.8127 11.3382L13.4091 13.6073ZM25.8891 5.04366C25.7942 4.67547 25.6131 4.33511 25.3609 4.05061C25.1086 3.76611 24.7924 3.54561 24.4382 3.40729C20.7182 1.9782 14.7509 2.00002 14.5 2.00002C14.2491 2.00002 8.28182 1.9782 4.56182 3.40729C4.20764 3.54561 3.8914 3.76611 3.63914 4.05061C3.38689 4.33511 3.20584 4.67547 3.11091 5.04366C2.82727 6.11275 2.5 8.07638 2.5 11.3382C2.5 14.6 2.82727 16.5637 3.11091 17.6327C3.20584 18.0009 3.38689 18.3413 3.63914 18.6258C3.8914 18.9103 4.20764 19.1308 4.56182 19.2691C8.28182 20.6982 14.2491 20.6764 14.5 20.6764H14.5764C15.3291 20.6764 20.8927 20.6327 24.4382 19.2691C24.7924 19.1308 25.1086 18.9103 25.3609 18.6258C25.6131 18.3413 25.7942 18.0009 25.8891 17.6327C26.1727 16.5637 26.5 14.6 26.5 11.3382C26.5 8.07638 26.1727 6.11275 25.8891 5.04366ZM24.6236 17.3055C24.5807 17.472 24.499 17.6259 24.3853 17.7548C24.2715 17.8838 24.1289 17.984 23.9691 18.0473C20.4782 19.3891 14.5655 19.3673 14.5 19.3673C14.4345 19.3673 8.52182 19.3891 5.03091 18.0473C4.87107 17.984 4.72846 17.8838 4.61471 17.7548C4.50096 17.6259 4.41929 17.472 4.37636 17.3055C4.11455 16.3018 3.80909 14.4582 3.80909 11.3382C3.80909 8.2182 4.11455 6.37457 4.37636 5.37093C4.41929 5.20445 4.50096 5.05047 4.61471 4.92156C4.72846 4.79264 4.87107 4.69243 5.03091 4.62911C8.52182 3.28729 14.4345 3.30911 14.5 3.30911C14.5655 3.30911 20.4782 3.28729 23.9691 4.62911C24.1289 4.69243 24.2715 4.79264 24.3853 4.92156C24.499 5.05047 24.5807 5.20445 24.6236 5.37093C24.8855 6.37457 25.1909 8.2182 25.1909 11.3382C25.1909 14.4582 24.8855 16.3018 24.6236 17.3055Z" fill="#666666"/>
</symbol>

</symbol>

<symbol id="telegram" width="29" height="22" viewBox="0 0 29 22" fill="none">
<path fill-rule="evenodd" clip-rule="evenodd" d="M23.9608 3.15291C24.1393 3.30222 24.2255 3.5349 24.1872 3.76448L21.5611 19.5214C21.5244 19.7411 21.3789 19.9273 21.1745 20.0159C20.97 20.1045 20.7346 20.0833 20.5493 19.9597L12.6708 14.7074C12.5177 14.6054 12.4145 14.4437 12.3862 14.2619C12.358 14.08 12.4074 13.8947 12.5223 13.751L15.133 10.4877L10.773 13.3944C10.577 13.525 10.326 13.5407 10.1152 13.4353L4.86293 10.8092C4.62769 10.6915 4.48535 10.4449 4.5012 10.1824C4.51705 9.91983 4.68804 9.6921 4.93573 9.60364L23.3188 3.03826C23.538 2.95998 23.7822 3.00359 23.9608 3.15291ZM6.82626 10.3228L10.3617 12.0905L17.9231 7.0495C18.1925 6.86994 18.5525 6.91349 18.7712 7.1521C18.99 7.3907 19.0022 7.75314 18.8 8.00591L13.995 14.0121L20.4328 18.3039L22.7083 4.65058L6.82626 10.3228Z" fill="#666666"/>
</symbol>

<symbol id="vkontakte" width="29" height="22" viewBox="0 0 29 22" fill="none">
<g clip-path="url(#clip0_88237_424)">
<path d="M1.5 5.33876C1.5 4.48373 2.0151 4.02268 3.04531 3.95562L7.01515 3.98077C7.28158 3.98077 7.45921 4.10651 7.54802 4.35799C7.95655 5.61538 8.41392 6.70094 8.92014 7.61465C9.42637 8.52835 10.088 9.58038 10.9051 10.7707C10.9761 10.9216 11.0916 10.997 11.2514 10.997C11.3758 10.997 11.4735 10.9384 11.5445 10.821L11.6244 10.5444L11.6511 6.19379C11.6511 5.89201 11.5756 5.69083 11.4246 5.59024C11.2736 5.48965 10.9939 5.4142 10.5853 5.36391C10.2656 5.31361 10.1058 5.12919 10.1058 4.81065C10.1058 4.74359 10.1146 4.69329 10.1324 4.65976C10.5054 3.57002 11.5711 3.02515 13.3296 3.02515L14.8216 3C15.4966 3 16.0561 3.15927 16.5001 3.47781C16.9442 3.79635 17.1662 4.29931 17.1662 4.98669V10.6953C17.2906 10.7791 17.406 10.821 17.5126 10.821C17.779 10.821 18.0099 10.6701 18.2053 10.3683C20.1592 7.78649 21.216 6.05966 21.3759 5.18787C21.3759 5.1711 21.3936 5.12919 21.4291 5.06213C21.5535 4.81065 21.7577 4.5927 22.0419 4.40828C22.3261 4.22387 22.5748 4.09813 22.788 4.03107C22.859 3.99753 22.9389 3.98077 23.0277 3.98077H27.1574L27.4239 4.00592C27.7791 4.00592 28.0544 4.16519 28.2498 4.48373C28.3209 4.58432 28.3697 4.69329 28.3964 4.81065C28.423 4.92801 28.4408 5.04536 28.4496 5.16272C28.4585 5.28008 28.463 5.34714 28.463 5.36391V5.53994C28.3386 6.22732 28.0233 6.9608 27.5171 7.74038C27.0109 8.51997 26.367 9.36243 25.5855 10.2678C24.804 11.1731 24.3155 11.7682 24.1201 12.0533C23.9603 12.2544 23.8803 12.4389 23.8803 12.6065C23.8803 12.7406 23.9514 12.8915 24.0935 13.0592L27.9834 17.6864C28.1965 17.9546 28.3031 18.248 28.3031 18.5666C28.3031 18.9522 28.1432 19.2707 27.8235 19.5222C27.5038 19.7737 27.1219 19.9162 26.6779 19.9497L26.2249 19.9749H22.1752C22.1574 19.9749 22.1219 19.979 22.0686 19.9874C22.0153 19.9958 21.9798 20 21.962 20C21.5712 20 21.2071 19.8407 20.8696 19.5222C20.7453 19.3881 19.9105 18.3989 18.3652 16.5547C18.2764 16.4374 18.152 16.3284 17.9922 16.2278C17.9211 16.4961 17.8279 16.8817 17.7124 17.3846C17.597 17.8876 17.5126 18.248 17.4593 18.466L17.3794 18.8935C17.2018 19.4803 16.8287 19.8323 16.2604 19.9497L15.8874 19.9749H13.2763C11.8021 19.9749 10.3322 19.3378 8.86686 18.0636C7.40148 16.7894 6.08264 15.1423 4.91034 13.122C3.73803 11.1018 2.64566 8.75049 1.63322 6.06805C1.54441 5.8501 1.5 5.607 1.5 5.33876ZM17.5126 11.8521C17.1396 11.8521 16.8021 11.7557 16.5001 11.5629C16.1982 11.3701 16.0472 11.106 16.0472 10.7707V4.98669C16.0472 4.65138 15.9584 4.41248 15.7808 4.26997C15.6032 4.12747 15.2923 4.05621 14.8483 4.05621L13.3296 4.10651C12.5658 4.10651 11.9886 4.23225 11.5978 4.48373C12.3793 4.8358 12.7701 5.40582 12.7701 6.19379V10.6198C12.7346 11.039 12.5569 11.3868 12.2372 11.6635C11.9175 11.9401 11.5623 12.0784 11.1715 12.0784C10.6386 12.0784 10.2301 11.8353 9.94591 11.3491C8.56046 9.37081 7.53025 7.4931 6.85529 5.71598L6.6155 5.06213L3.07195 5.03698C2.84104 5.03698 2.71227 5.04956 2.68562 5.0747C2.65898 5.09985 2.64566 5.1711 2.64566 5.28846C2.64566 5.43935 2.66342 5.59862 2.69895 5.76627L3.25845 7.17456C4.75048 10.8126 6.37127 13.6795 8.12085 15.7751C9.87042 17.8708 11.5889 18.9186 13.2763 18.9186H15.9406C16.0472 18.9186 16.1271 18.8893 16.1804 18.8306C16.2337 18.7719 16.2781 18.6588 16.3136 18.4911L16.3669 18.2396L16.8732 16.0266C17.0152 15.7249 17.1396 15.5237 17.2462 15.4231C17.4415 15.2387 17.6725 15.1465 17.9389 15.1465C18.3652 15.1465 18.8003 15.3895 19.2444 15.8757L21.5091 18.5917C21.6512 18.8097 21.8022 18.9186 21.962 18.9186H26.3581C26.891 18.9186 27.1574 18.7929 27.1574 18.5414C27.1574 18.4576 27.1308 18.3738 27.0775 18.2899L23.2142 13.7382C22.9123 13.3861 22.7613 13.0089 22.7613 12.6065C22.7613 12.2041 22.9034 11.8185 23.1876 11.4497C23.4185 11.1144 23.867 10.557 24.5331 9.77737C25.1992 8.99778 25.7809 8.26849 26.2782 7.5895C26.7756 6.9105 27.1042 6.29438 27.264 5.74112L27.3439 5.4142C27.3262 5.38067 27.3173 5.32618 27.3173 5.25074C27.3173 5.1753 27.3084 5.11243 27.2907 5.06213H23.1077C22.8412 5.16272 22.6281 5.31361 22.4682 5.51479L22.3084 5.9926C21.8643 7.14941 20.7009 8.93491 18.8181 11.3491C18.4451 11.6844 18.0099 11.8521 17.5126 11.8521Z" fill="#666666"/>
</g>
<defs>
<clipPath>
<rect width="28" height="22" fill="white" transform="translate(0.5)"/>
</clipPath>
</defs>
</symbol>

<symbol id="youtube" width="29" height="22" viewBox="0 0 29 22" fill="none">
<path d="M18.3509 10.7927L13.1145 7.30184C13.0159 7.23691 12.9016 7.19985 12.7837 7.19459C12.6657 7.18934 12.5486 7.21608 12.4446 7.27198C12.3406 7.32789 12.2537 7.41087 12.193 7.51215C12.1324 7.61343 12.1002 7.72924 12.1 7.84729V14.8291C12.1001 14.9481 12.1327 15.0648 12.1942 15.1667C12.2557 15.2686 12.3438 15.3518 12.4491 15.4073C12.5524 15.4631 12.6691 15.4895 12.7864 15.4837C12.9037 15.478 13.0172 15.4402 13.1145 15.3746L18.3509 11.8837C18.4409 11.8239 18.5148 11.7429 18.5658 11.6477C18.6169 11.5526 18.6436 11.4462 18.6436 11.3382C18.6436 11.2302 18.6169 11.1239 18.5658 11.0287C18.5148 10.9335 18.4409 10.8525 18.3509 10.7927ZM13.4091 13.6073V9.06911L16.8127 11.3382L13.4091 13.6073ZM25.8891 5.04366C25.7942 4.67547 25.6131 4.33511 25.3609 4.05061C25.1086 3.76611 24.7924 3.54561 24.4382 3.40729C20.7182 1.9782 14.7509 2.00002 14.5 2.00002C14.2491 2.00002 8.28182 1.9782 4.56182 3.40729C4.20764 3.54561 3.8914 3.76611 3.63914 4.05061C3.38689 4.33511 3.20584 4.67547 3.11091 5.04366C2.82727 6.11275 2.5 8.07638 2.5 11.3382C2.5 14.6 2.82727 16.5637 3.11091 17.6327C3.20584 18.0009 3.38689 18.3413 3.63914 18.6258C3.8914 18.9103 4.20764 19.1308 4.56182 19.2691C8.28182 20.6982 14.2491 20.6764 14.5 20.6764H14.5764C15.3291 20.6764 20.8927 20.6327 24.4382 19.2691C24.7924 19.1308 25.1086 18.9103 25.3609 18.6258C25.6131 18.3413 25.7942 18.0009 25.8891 17.6327C26.1727 16.5637 26.5 14.6 26.5 11.3382C26.5 8.07638 26.1727 6.11275 25.8891 5.04366ZM24.6236 17.3055C24.5807 17.472 24.499 17.6259 24.3853 17.7548C24.2715 17.8838 24.1289 17.984 23.9691 18.0473C20.4782 19.3891 14.5655 19.3673 14.5 19.3673C14.4345 19.3673 8.52182 19.3891 5.03091 18.0473C4.87107 17.984 4.72846 17.8838 4.61471 17.7548C4.50096 17.6259 4.41929 17.472 4.37636 17.3055C4.11455 16.3018 3.80909 14.4582 3.80909 11.3382C3.80909 8.2182 4.11455 6.37457 4.37636 5.37093C4.41929 5.20445 4.50096 5.05047 4.61471 4.92156C4.72846 4.79264 4.87107 4.69243 5.03091 4.62911C8.52182 3.28729 14.4345 3.30911 14.5 3.30911C14.5655 3.30911 20.4782 3.28729 23.9691 4.62911C24.1289 4.69243 24.2715 4.79264 24.3853 4.92156C24.499 5.05047 24.5807 5.20445 24.6236 5.37093C24.8855 6.37457 25.1909 8.2182 25.1909 11.3382C25.1909 14.4582 24.8855 16.3018 24.6236 17.3055Z" fill="#666666"/>
</symbol>

</svg>
