<?xml version="1.0" encoding="UTF-8"?><!DOCTYPE svg PUBLIC "-//W3C//DTD SVG 1.1//EN" "http://www.w3.org/Graphics/SVG/1.1/DTD/svg11.dtd"><svg xmlns="http://www.w3.org/2000/svg" xmlns:xlink="http://www.w3.org/1999/xlink"><defs><clipPath id="clip0_2403_774"><path fill="#fff" transform="translate(0 44)" d="M0 0h268v112H0z"/></clipPath><clipPath id="clip0_2403_755"><path fill="#fff" transform="translate(30)" d="M0 0h140v194H0z"/></clipPath><clipPath id="clip0_88237_433"><path fill="#fff" d="M0 0h27v34H0z"/></clipPath><clipPath id="clip0_95_18"><path fill="#fff" transform="translate(15.5 14)" d="M0 0h30v32H0z"/></clipPath><clipPath id="clip0_135_3354"><path fill="#fff" d="M0 0h101v18H0z"/></clipPath><clipPath id="clip0_88237_424"><path fill="#fff" transform="translate(.5)" d="M0 0h28v22H0z"/></clipPath></defs><symbol id="catalog-pro-img" viewBox="0 0 268 200"><g fill="none"><circle cx="134" cy="100" r="100" fill="#68B738"/><g clip-path="url(#clip0_2403_774)"><path d="M246.236 55.514a30.402 30.402 0 019-9.2c2-1.4 3.2-1.4 4.4 1.2 1.6 3.8 3 7.8 1.8 12a4.59 4.59 0 00.8 4.2c1.2 1.6 2.2 3.2 3.2 4.6a12.541 12.541 0 011.8 12.4 10.865 10.865 0 00-.4 6.2c.4 1.98.4 4.02 0 6a7.494 7.494 0 01-5.4 6.4 10.419 10.419 0 00-6.4 4c-.188.307-.453.56-.769.735-.315.176-.67.267-1.031.265-2.4.4-8.4-5-8.4-7.4v-1.2c.2-7.2-.2-7.8-6.8-10.8a8.783 8.783 0 01-3.6-2.4c-1.2-1.6-2.8-1.4-4.6-.8-1.8.6-2.8 1.8-2.6 3.8.604 4.841.804 9.725.6 14.6.014.556.15 1.103.4 1.6 6.2 9 8.6 19.6 11.6 29.8 2.4 7.8 6.8 12 14.8 12.6 1.281.102 2.551.302 3.8.6a8.318 8.318 0 016.8 6.4c1.4 4.2.6 5.2-3.6 5.2h-13a6.481 6.481 0 01-4.6-1.6 23.39 23.39 0 00-6.8-4 14.53 14.53 0 01-6.8-5.2 57.163 57.163 0 00-8-9c-5.6-5.8-11.6-11.4-16.8-17.4a22.77 22.77 0 01-6.4-15.2c0-1.8-.4-2.6-2.4-1.8a3.86 3.86 0 01-2 .6c-5.6 0-8.4 3.4-10.4 8.4-1.8 4.2-4.2 8.2-6.4 12.4a20.802 20.802 0 00-2 8.4c0 4.8 1.2 6.4 5.6 8 2.8 1 5.4 2 6.8 4.8 1.6 3.2 1.2 4-2.2 4.2h-13.6a3.762 3.762 0 01-3.8-2.2l-3.6-6a12.101 12.101 0 01-1.4-10.8c.866-3.473.934-7.097.2-10.6a16.842 16.842 0 013.4-14c1.2-1.4 1.2-2-.8-2.4a100.166 100.166 0 01-23.6-8.2.2.2 0 01-.2-.2c-6.4-2.4-7.6-2-9.4 4.6-1.6 5.6-3.2 11.2-4.4 17-1.4 6.4.2 12.4 2.2 18.4.8 2.4 3.2 2.2 5 2.8 4 1.2 7.4 2.8 9 7 1.4 3.2 1.2 3.6-2.2 3.6-3.4 0-6.8-.2-10.4 0a13.288 13.288 0 01-8.4-2.8c-9.6-6.4-12.4-16.2-13.2-26.8-.4-6.6-4-11.8-8.2-16.8-.8-1-1.6-1.4-2.8-.6a88.625 88.625 0 01-13.4 6 53.42 53.42 0 00-24.4 17.6 21.259 21.259 0 00-4.4 10.2c-.6 3.6.4 5.2 4 6.2s5.4 3 5.8 6.8c.2 1.6-.4 2.4-2 2.4h-16.2a3.301 3.301 0 01-2.6-1.6 17.121 17.121 0 01-3.8-11 101.19 101.19 0 011.8-20.6 12.6 12.6 0 016.8-9.6c11.8-5.6 18-16.2 23.6-27.2 1.2-2.2.2-2.6-1.8-2.4a32.94 32.94 0 00-15.4 6.4 141.23 141.23 0 00-16.6 14.2 33.342 33.342 0 01-20.6 9.8c-14.6.8-21.4-7.4-20.8-20.6a19.38 19.38 0 014.8-12.2 8.5 8.5 0 019-3c3 .8 3.8 2.4 2.6 5.4-.6 1.2-1.4 2.2-2 3.4a14.998 14.998 0 00-2 4c-2.2 6 .8 10.2 7 10.8 6.6.6 12-2.2 17-6.2a89.88 89.88 0 0016-16.6 41.579 41.579 0 0128.8-16.2c4.6-.6 8.6-2.6 13-3.8a83.014 83.014 0 0125.4-3.6 25.996 25.996 0 0011.6-2.2c9.8-4 20-4 30.2-2 8 1.6 16 3.6 23.8 5.6 4.642.865 9.415.728 14-.4a135.599 135.599 0 0126.8-4 36.318 36.318 0 0117.2 3.4c4 1.8 4 1.8 3 5.6z" fill="#000"/></g></g></symbol><symbol id="catalog-slim-img" viewBox="0 0 200 211"><g fill="none"><circle cx="100" cy="111" r="100" fill="#68B738"/><g clip-path="url(#clip0_2403_755)"><path d="M139.68 0h-.76A7 7 0 00136 3.18a31.04 31.04 0 00-2.58 6.82 3.257 3.257 0 01-2.96 2.68A14.675 14.675 0 00120 20.24a54.62 54.62 0 00-3.7 8c-2.84 7.36-5.02 14.96-7.7 22.38-1.26 3.38-1.32 3.38-5.12 3.38-4.54 0-4.22-.7-4.28 4.3 0 1.58.48 2.38 2.16 2.3.52 0 1.3-.26 1.5.42.2.68-.48.98-.88 1.38a18 18 0 01-8.66 4.88c-3.8 1.02-7.68 1.82-11.38 3.06-9.5 3.18-18.28 7.62-25.12 15.14a56 56 0 00-9.48 15.68c-7.34 17.28-10.9 35.48-13.66 53.86-1.3 8.62-2.22 17.28-2.92 26-.36 4.28-.76 8.62-.76 12.98h66.66c.11-.88-.05-1.773-.46-2.56a10.002 10.002 0 00-7.66-6.14c-1.4-.32-1.56-.74-.7-1.84a20.692 20.692 0 003.18-6.2c3.26-9.62 4.52-19.66 6.1-29.6A60.008 60.008 0 01104 126a43.215 43.215 0 0111.18-12.74c1.66-1.26 1.72-1.26 2 .88.2 1.42.24 2.88.34 4.32.6 9.449.48 18.93-.36 28.36a123.318 123.318 0 00-.3 22A150.344 150.344 0 00121.4 194H148a10.817 10.817 0 00-8.48-8.88 18.007 18.007 0 00-7.52.4c-1.2.28-1.7 0-1.8-1.3a112.726 112.726 0 012-31.64 355.46 355.46 0 006.12-36.36 35.499 35.499 0 014.56-14c2.38-4.24 4.46-8.64 6.8-12.9a11.745 11.745 0 00.84-10.38c-.54-1.42-1.06-2.86-1.72-4.22-2-3.9-4-7.76-5.84-11.7-.98-2-.76-2.24 1.42-2.3 3.26 0 3.26 0 3.32-3.28v-1.32c0-1.38-.52-2.14-2-2h-3.04c-1.38 0-1.78-.58-1.44-2a12.483 12.483 0 0110.26-8.86 43.999 43.999 0 0113.24.86 1.999 1.999 0 002.5-1.28c.8-2 1.68-4 2.58-6a1.997 1.997 0 00-.2-2.28c-6.4-8.12-13.34-15.7-22.8-20.56a2.977 2.977 0 01-1.76-2.24 39.163 39.163 0 00-2.54-8.32A7 7 0 00139.68 0z" fill="#000"/></g></g></symbol><symbol id="catalog-slim-pro"><g fill="none"><path stroke="#000" stroke-width="2" d="M0 6h18"/><path d="M24 6l-6.75 5.196V.804L24 6z" fill="#000"/></g></symbol><symbol id="close-nav"><g fill="none"><path stroke="#000" stroke-width="1.5" d="M0 1.25h24M0 9.25h24M0 17.25h24"/></g></symbol><symbol id="email-stroke" viewBox="0 0 20 20"><g fill="none"><path d="M1.5 8.5v8h17v-8m-17-5h17v2l-8.5 6-8.5-6v-2z" stroke="#000" stroke-linecap="round" stroke-linejoin="round"/></g></symbol><symbol id="html-academy"><g fill="none"><g clip-path="url(#clip0_88237_433)"><path d="M13.643.016L13.5 0 0 1.407v24.606L13.5 34 27 26.013V1.407L13.643.016zm11.591 25L13.5 31.956 1.766 25.015V14.93l11.685 6.916.02 1.253-8.017-4.743-.011 1.225 8.046 4.809.02 1.286-8.045-4.758-.01 1.226L13.5 26.95l8.124-4.833V16.91l3.62-2.15-.01 10.256zm0-11.564l-3.22 1.88-1.482.875-7.065-4.187-.011 1.225 6.04 3.573-.053.031-.13.076-.86.492-4.986-2.948-.011 1.225 3.936 2.328-.933.61-.021.012-2.971-1.742-.011 1.225 1.947 1.135-1.988 1.186-11.618-6.872 11.638-6.958 11.8 6.834zm0-1.225L13.44 5.31 1.766 12.22V2.99L13.5 1.764 25.234 2.99v9.237z" fill="#666"/></g></g></symbol><symbol id="htmlacademy" viewBox="0 0 60 60"><path fill="#2E368F" d="M30.2 5H30L10.3 7.1v36.2L30 55l19.7-11.7V7.1L30.2 5zm17 36.8L30 52 12.8 41.8V27l17.1 10.2V39l-11.7-7v1.8L30 40.9v1.9l-11.8-7v1.8l11.8 7 11.9-7.1v-7.6l5.3-3.2v15.1zm-.1-17l-4.7 2.8-2.2 1.3-10.3-6.1v1.8l8.8 5.3h-.1l-.2.1-1.3.7-7.3-4.3v1.8l5.8 3.4-1.4.9-4.3-2.6v1.8l2.9 1.7-2.9 1.7-17-10.1 17-10.2 17.2 10zm.1-1.8L29.9 12.8 12.8 23V9.4L30 7.6l17.2 1.8V23z"/></symbol><symbol id="icon-chemistry"><g fill="none"><path fill="#68B738" d="M.5 0h60v60H.5z"/><path d="M28.875 16c-1.631 0-2.9 1.36-2.9 3.081 0 1.722 1.269 3.082 2.9 3.082s2.9-1.36 2.9-3.082c0-1.722-1.269-3.081-2.9-3.081zm0 1.178c.997 0 1.722.843 1.722 1.903 0 .997-.789 1.903-1.722 1.903-.997 0-1.722-.842-1.722-1.903 0-.997.78-1.903 1.722-1.903zM18 40.741c0 1.178.408 2.175 1.36 2.99.996.852 2.174.78 2.174.78h19.032c.779 0 1.812-.381 2.628-1.45.843-.997.788-2.357.788-2.357V23.486c0-.435-.109-.599-.743-.599s-.689.272-.689.59v17.218c-.018.3-.072 1.088-.743 1.722-.734.625-1.45.544-1.45.544s-18.125 0-19.031-.027c-.344-.064-.906-.19-1.45-.906-.508-.725-.408-1.632-.408-1.632V23.177c0-.462-.235-.634-.725-.634s-.743.172-.743.58v17.618zm16.313-16.313c-1.088.236-2.175.38-4.26 2.356-2.084 1.994-3.625 1.904-5.166 1.813-1.54-.09-3.171-1.54-3.443-1.903-.336-.354-.906-.118-1.088.118-.154.235-.154.643.109.996 1.269 1.179 2.447 2.085 4.712 2.266 2.266.218 4.441-.807 5.891-2.266 1.45-1.45 2.175-1.721 3.263-1.903 2.628-.417 4.168.617 5.075 1.27.997 1.087 1.268.778 1.54.47.544-.716-.226-1.268-1.087-1.903-1.813-1.178-3.535-1.631-5.528-1.269l-.019-.045zm-9.063 7.16c-1.178 0-2.084.996-2.084 2.265 0 1.269.906 2.266 2.084 2.266s2.084-.997 2.084-2.266c0-1.269-.906-2.266-2.084-2.266zm11.781.779c-1.54 0-2.81 1.36-2.81 2.99 0 1.632 1.27 2.991 2.81 2.991s2.81-1.36 2.81-2.99c0-1.632-1.27-2.991-2.81-2.991zm0 1.45c.798 0 1.45.698 1.45 1.54 0 .861-.652 1.541-1.45 1.541-.797 0-1.45-.698-1.45-1.54 0-.861.653-1.541 1.45-1.541z" fill="#fff"/></g></symbol><symbol id="icon-eat"><g fill="none"><path fill="#68B738" d="M.5 0h60v60H.5z"/><path fill-rule="evenodd" clip-rule="evenodd" d="M36.617 15.076a1 1 0 011.09.217c.909.908 2.097 2.878 3.059 5.918C41.737 24.28 42.5 28.508 42.5 34a1 1 0 01-1 1H38v9a1 1 0 11-2 0V16a1 1 0 01.617-.924zM38 33h2.491c-.086-4.816-.786-8.512-1.632-11.186-.278-.88-.57-1.642-.859-2.295V33zM24 15a1 1 0 011 1v28a1 1 0 11-2 0V16a1 1 0 011-1z" fill="#fff"/><path fill-rule="evenodd" clip-rule="evenodd" d="M19.5 15a1 1 0 011 1v5.5c0 .557.192 1.315.7 1.917.48.566 1.315 1.083 2.8 1.083a1 1 0 110 2c-2.015 0-3.43-.733-4.326-1.792A5.068 5.068 0 0118.5 21.5V16a1 1 0 011-1z" fill="#fff"/><path fill-rule="evenodd" clip-rule="evenodd" d="M28.5 15a1 1 0 00-1 1v5.5a3.07 3.07 0 01-.7 1.917c-.48.566-1.315 1.083-2.8 1.083a1 1 0 000 2c2.014 0 3.43-.733 4.326-1.792A5.068 5.068 0 0029.5 21.5V16a1 1 0 00-1-1z" fill="#fff"/></g></symbol><symbol id="icon-leaf"><g fill="none"><path fill="#68B738" d="M.5 0h60v60H.5z"/><g clip-path="url(#clip0_95_18)"><path d="M43.344 16.767c-.1-.45-.48-.767-.912-.767h-.005c-4.938.033-16.945.916-21.793 8.38-2.518 3.878-2.735 8.913-.644 14.965.016.047.048.079.07.122-.747 1.973-1.037 3.286-1.044 3.323-.11.54.214 1.072.72 1.188a.88.88 0 00.197.022c.433 0 .822-.321.916-.79.02-.102 2.409-10.373 10.854-16.378.431-.306.547-.927.26-1.387-.288-.46-.87-.585-1.3-.277-4.79 3.405-7.739 8.008-9.473 11.656-1.242-4.578-.916-8.377.986-11.305 3.743-5.764 12.622-7.154 17.982-7.448-1.153 1.801-2.413 5.103-2.413 10.929 0 3.12-.83 5.522-2.465 7.14-2.62 2.591-6.88 2.834-9.993 2.584-.518-.045-.967.371-1.006.922-.04.55.347 1.03.863 1.072.623.051 1.29.082 1.981.082 3.17 0 6.87-.663 9.43-3.194 2.034-2.011 3.065-4.906 3.065-8.605 0-9.099 3.216-11.096 3.232-11.105.39-.209.594-.677.492-1.129z" fill="#fff"/></g></g></symbol><symbol id="icon-watch"><g fill="none"><path fill="#68B738" d="M.5 0h60v60H.5z"/><path d="M23.538 15c-1.063 0-1.063 1.583 0 1.583h6.643v1.604C23.38 18.62 18 24.414 18 31.485c0 4.01 1.743 7.63 4.496 10.069.479.422.542 1.171.107 1.636l-1.531 1.551c-.744.686.361 1.752 1.031 1.003l1.998-2.037c.351-.338.872-.422 1.308-.211a12.702 12.702 0 0011.065.063 1.14 1.14 0 011.297.211l1.934 1.974c.68.633 1.659-.317 1.042-1.003l-1.445-1.477c-.447-.454-.383-1.204.106-1.636a13.462 13.462 0 003.403-4.583A13.376 13.376 0 0044 31.475c0-7.071-5.41-12.876-12.224-13.288v-1.604h6.643c1.063 0 1.063-1.583 0-1.583H23.538zm-4.103 16.475c0-6.533 5.177-11.82 11.565-11.82 6.378 0 11.554 5.287 11.554 11.82 0 6.543-5.176 11.841-11.554 11.841s-11.565-5.298-11.565-11.841zm10.757-8.095c0-1.098 1.658-1.098 1.658 0v8.633c0 .224-.09.439-.249.597a.853.853 0 01-.601.247.811.811 0 01-.568-.23.8.8 0 01-.24-.561V23.38zm-4.974 2.617c.307 0 .601-.12.819-.337a1.146 1.146 0 000-1.627 1.163 1.163 0 00-.82-.337c-.286.028-.552.16-.746.372a1.146 1.146 0 000 1.547c.194.212.46.344.747.372v.01zm11.554 0c.307 0 .602-.12.82-.337a1.146 1.146 0 000-1.627 1.163 1.163 0 00-.82-.337c-.287.028-.553.16-.747.372a1.145 1.145 0 000 1.547c.194.212.46.344.747.372v.01zM26.376 38.588c0 1.53-2.317 1.53-2.317 0s2.317-1.53 2.317 0zM31 42.028a1.169 1.169 0 00.89-.293 1.153 1.153 0 00.38-.851 1.145 1.145 0 00-.38-.852 1.162 1.162 0 00-1.637.078 1.146 1.146 0 000 1.547c.194.212.46.344.747.372zm-8.09-10.384a1.142 1.142 0 01-.295.883 1.158 1.158 0 01-.857.377 1.166 1.166 0 01-.858-.377 1.15 1.15 0 01-.296-.883c.028-.285.161-.55.375-.742a1.163 1.163 0 011.558 0c.213.193.346.457.374.742zm17.327 1.15a1.165 1.165 0 001.17-.68 1.144 1.144 0 00-.694-1.557 1.166 1.166 0 00-1.223.318 1.146 1.146 0 000 1.547c.194.212.46.345.747.372zm-2.307 5.805c0 1.52-2.317 1.52-2.317-.01 0-1.531 2.317-1.531 2.317 0v.01z" fill="#fff"/></g></symbol><symbol id="icon_gift"><g fill="none"><path d="M64.016 34.713H14.03c-1.754 0-3.182-1.418-3.182-3.16v-9.469c0-1.742 1.428-3.16 3.182-3.16h49.984c1.754 0 3.18 1.418 3.18 3.16v9.469c0 1.742-1.426 3.16-3.18 3.16zM14.03 21.346a.751.751 0 00-.744.738v9.469c0 .407.334.738.744.738h49.984c.41 0 .743-.331.743-.738v-9.469a.75.75 0 00-.743-.738H14.03z" fill="#fff"/><path d="M57.045 67.149H20.999c-3.377 0-6.125-2.73-6.125-6.086V33.502c0-.669.546-1.212 1.219-1.212s1.219.543 1.219 1.212v27.56c0 2.021 1.654 3.665 3.687 3.665h36.046c2.032 0 3.686-1.644 3.686-3.664V33.502c0-.669.546-1.212 1.219-1.212.672 0 1.218.543 1.218 1.212v27.56c0 3.357-2.747 6.087-6.123 6.087z" fill="#fff"/><path d="M39.023 67.149a1.215 1.215 0 01-1.22-1.211V33.502c0-.669.547-1.212 1.22-1.212.672 0 1.218.543 1.218 1.212v32.435c0 .67-.545 1.212-1.218 1.212zM23.811 21.341c-3.814-2.054-5.238-6.808-3.173-10.6 2.064-3.789 6.848-5.204 10.665-3.154 5.814 3.13 8.954 11.86 9.084 12.23l-2.3.804c-.029-.083-2.961-8.222-7.944-10.904-2.635-1.415-5.937-.438-7.36 2.177-1.426 2.618-.444 5.9 2.19 7.318l-1.162 2.13z" fill="#fff"/><path d="M54.231 21.341l-1.16-2.13a5.376 5.376 0 002.622-3.207 5.327 5.327 0 00-.431-4.109 5.382 5.382 0 00-3.226-2.604 5.426 5.426 0 00-4.134.426c-4.982 2.682-7.915 10.82-7.944 10.903l-2.3-.803c.131-.37 3.27-9.101 9.084-12.23a7.859 7.859 0 015.99-.617 7.8 7.8 0 014.674 3.771 7.72 7.72 0 01.623 5.953 7.788 7.788 0 01-3.798 4.647zM61.95 50.931H16.093a1.215 1.215 0 01-1.219-1.21c0-.67.546-1.212 1.219-1.212H61.95c.672 0 1.218.543 1.218 1.211 0 .669-.545 1.211-1.218 1.211z" fill="#fff"/></g></symbol><symbol id="open-nav"><g fill="none"><path transform="scale(.97098 1.0282) rotate(-45 24.51 7.237)" stroke="#000" stroke-width="1.5" d="M0-.75h24.758"/><path transform="matrix(.68659 .72705 -.68659 .72705 1 2)" stroke="#000" stroke-width="1.5" d="M0-.75h24.758"/></g></symbol><symbol id="phone-stroke" viewBox="0 0 20 20"><g fill="none"><path d="M10 10h8.5m0 0L16 7.5m2.5 2.5L16 12.5m-7.5-10v5h-3v5h3v5H6c-1.5 0-2.5-1-2.5-2.5V5c0-1.5 1-2.5 2.5-2.5h2.5z" stroke="#000" stroke-linecap="round" stroke-linejoin="round"/></g></symbol><symbol id="show-more-button"><g fill="none"><path stroke="#D3D3D3" stroke-width="2" d="M15 0v30M30 15H0"/></g></symbol><symbol id="site-logo"><g fill="none"><g clip-path="url(#clip0_135_3354)" fill="#111"><path d="M1.264 16.538A6.865 6.865 0 010 12.231V5.846a6.95 6.95 0 011.185-4.384C2.055.462 3.398 0 5.374 0s3.24.462 4.03 1.308a5.422 5.422 0 011.186 3.769v1.538H6.718V4.846a3.693 3.693 0 00-.238-1.538 1.12 1.12 0 00-.456-.473 1.163 1.163 0 00-.65-.143c-.553 0-.948.154-1.106.539a4.846 4.846 0 00-.237 1.692v8.23a3.111 3.111 0 00.316 1.616c.158.385.553.539 1.106.539s.87-.154 1.027-.539c.18-.52.26-1.067.238-1.615v-1.846h3.872v1.538a5.775 5.775 0 01-1.185 3.846c-.79.923-2.134 1.385-4.031 1.385-1.897-.077-3.32-.539-4.11-1.539zM15.253.23h4.504l3.32 17.54H19.44l-.632-3.693h-2.608l-.632 3.692h-3.715L15.253.231zm3.24 11.54l-.948-6.847-.949 6.846h1.897zM25.843 3.154h-2.687V.23h9.404v2.846h-2.687v14.692h-4.03V3.154zM39.752.23h6.955v1.847h-4.505v5.77h3.635v1.768h-3.635v6.462h4.505v1.77h-7.034V.23h.079zM48.761.23H50.5l5.137 11.616V.231h2.055v17.538h-1.58l-5.217-12v12h-2.134V.231zM60.063.23h6.954v1.847h-4.504v5.77h3.635v1.768h-3.635v6.462h4.504v1.77h-6.954V.23zM69.072.23h3.635a6.451 6.451 0 014.03 1.078c.87.692 1.265 1.923 1.265 3.538 0 2.23-.71 3.616-2.212 4.077l2.528 8.77h-2.45l-2.37-8.231h-1.976v8.23h-2.529V.231h.079zm3.477 7.54a3.524 3.524 0 002.292-.616c.474-.385.711-1.154.711-2.308a4.848 4.848 0 00-.237-1.692 1.975 1.975 0 00-.869-.923 3.69 3.69 0 00-1.739-.308h-1.106v5.77h.948v.076zM81.163 16.462A7.613 7.613 0 0180.058 12V6.154a12.26 12.26 0 01.395-3.308 3.916 3.916 0 011.502-2c.882-.508 1.9-.75 2.924-.692 1.66 0 2.845.384 3.556 1.23a5.771 5.771 0 011.107 3.847v.615H87.17v-.538a11.03 11.03 0 00-.158-1.923 1.533 1.533 0 00-.633-1A2.493 2.493 0 0084.878 2a2.417 2.417 0 00-1.58.462c-.187.152-.338.34-.447.551a1.701 1.701 0 00-.186.68 14.01 14.01 0 00-.158 2.076v6.539a6.818 6.818 0 00.474 2.923c.316.615.949.846 1.897.846.374.045.754-.018 1.092-.182.337-.165.617-.422.805-.741a6.908 6.908 0 00.553-3.077v-1.23h-2.292v-1.77h4.584v8.692h-1.58l-.238-2a3.143 3.143 0 01-1.226 1.658 3.288 3.288 0 01-2.014.573 4.046 4.046 0 01-1.899-.352 3.932 3.932 0 01-1.5-1.186zM94.678 11.615L90.805.308h2.371l2.766 8.461L98.63.308H101l-3.873 11.307v6.154h-2.37v-6.154h-.08z"/></g></g></symbol><symbol id="slider-buttons"><g fill="none"><rect x="18" width="4" height="256" rx="2" fill="#666"/><rect x="1" y="109" width="38" height="38" rx="19" fill="#fff"/><path d="M16 119l-8 9 8 9v-18zM32 128l-8-9v18l8-9z" fill="#666"/><rect x="1" y="109" width="38" height="38" rx="19" stroke="#666" stroke-width="2"/></g></symbol><symbol id="sprite"/><symbol id="telegram"><g fill="none"><path fill-rule="evenodd" clip-rule="evenodd" d="M23.96 3.153c.18.15.265.382.227.611l-2.626 15.757a.657.657 0 01-1.012.439l-7.878-5.253a.657.657 0 01-.149-.956l2.611-3.263-4.36 2.906a.657.657 0 01-.658.041L4.863 10.81a.657.657 0 01.073-1.205l18.383-6.566a.657.657 0 01.642.115zm-17.134 7.17l3.536 1.768 7.561-5.041a.656.656 0 01.877.956l-4.805 6.006 6.438 4.292L22.708 4.65 6.826 10.323z" fill="#666"/></g></symbol><symbol id="vkontakte"><g fill="none"><g clip-path="url(#clip0_88237_424)"><path d="M1.5 5.339c0-.855.515-1.316 1.545-1.383l3.97.025a.52.52 0 01.533.377c.409 1.257.866 2.343 1.372 3.257.506.913 1.168 1.965 1.985 3.156.071.15.187.226.346.226.125 0 .223-.059.293-.176l.08-.277.027-4.35c0-.302-.075-.503-.226-.604-.151-.1-.431-.176-.84-.226-.32-.05-.48-.235-.48-.553 0-.067.01-.118.027-.151.373-1.09 1.44-1.635 3.198-1.635L14.822 3c.675 0 1.234.16 1.678.478.444.318.666.821.666 1.509v5.708c.125.084.24.126.347.126.266 0 .497-.15.692-.453 1.954-2.582 3.011-4.308 3.17-5.18 0-.017.019-.059.054-.126.125-.251.329-.47.613-.654.284-.184.533-.31.746-.377a.554.554 0 01.24-.05h4.13l.266.025c.355 0 .63.16.826.478.07.1.12.21.146.327.027.117.045.234.054.352.009.117.013.184.013.2v.177c-.124.687-.44 1.42-.946 2.2-.506.78-1.15 1.622-1.931 2.528-.782.905-1.27 1.5-1.466 1.785-.16.201-.24.386-.24.553 0 .135.071.286.213.453l3.89 4.627c.213.269.32.562.32.88 0 .386-.16.705-.48.956-.32.252-.701.394-1.145.428l-.453.025h-4.05a.855.855 0 00-.106.012.862.862 0 01-.107.013c-.39 0-.755-.16-1.092-.478-.125-.134-.96-1.123-2.505-2.967a1.387 1.387 0 00-.373-.327c-.07.268-.164.654-.28 1.157-.115.503-.2.863-.253 1.081l-.08.427c-.177.587-.55.94-1.119 1.057l-.373.025h-2.61c-1.475 0-2.945-.637-4.41-1.911-1.466-1.275-2.784-2.922-3.957-4.942-1.172-2.02-2.264-4.372-3.277-7.054a1.916 1.916 0 01-.133-.73zm16.013 6.513c-.373 0-.71-.096-1.013-.29-.302-.192-.453-.456-.453-.791V4.987c0-.336-.089-.575-.266-.717-.178-.143-.489-.214-.933-.214l-1.518.05c-.764 0-1.341.126-1.732.378.781.352 1.172.922 1.172 1.71v4.426a1.5 1.5 0 01-.533 1.044 1.59 1.59 0 01-1.066.414c-.532 0-.94-.243-1.225-.729C8.56 9.371 7.53 7.493 6.856 5.716l-.24-.654-3.544-.025c-.231 0-.36.013-.386.038-.027.025-.04.096-.04.213 0 .151.017.31.053.478l.56 1.409c1.491 3.638 3.112 6.505 4.862 8.6 1.75 2.096 3.468 3.144 5.155 3.144h2.665c.106 0 .186-.03.24-.088.053-.06.097-.172.133-.34l.053-.251.506-2.213c.142-.302.267-.503.373-.604a.975.975 0 01.693-.277c.426 0 .861.243 1.305.73l2.265 2.716c.142.218.293.327.453.327h4.396c.533 0 .8-.126.8-.378a.466.466 0 00-.08-.251l-3.864-4.552c-.302-.352-.453-.73-.453-1.131 0-.403.142-.788.427-1.157.23-.336.679-.893 1.345-1.673a37.63 37.63 0 001.745-2.187c.498-.68.826-1.296.986-1.849l.08-.327a.371.371 0 01-.027-.163.574.574 0 00-.026-.189h-4.183c-.267.1-.48.252-.64.453l-.16.478c-.444 1.156-1.607 2.942-3.49 5.356a1.892 1.892 0 01-1.305.503z" fill="#666"/></g></g></symbol><symbol id="youtube"><g fill="none"><path d="M18.35 10.793l-5.236-3.491a.655.655 0 00-1.014.545v6.982a.654.654 0 001.014.546l5.237-3.491a.655.655 0 000-1.091zm-4.94 2.814V9.07l3.403 2.27-3.404 2.268zm12.48-8.563a2.4 2.4 0 00-1.452-1.637C20.718 1.978 14.751 2 14.5 2c-.25 0-6.218-.022-9.938 1.407A2.4 2.4 0 003.11 5.044C2.827 6.113 2.5 8.076 2.5 11.338c0 3.262.327 5.226.61 6.295a2.4 2.4 0 001.452 1.636c3.72 1.43 9.687 1.407 9.938 1.407h.076c.753 0 6.317-.043 9.862-1.407a2.4 2.4 0 001.451-1.636c.284-1.07.611-3.033.611-6.295s-.327-5.225-.61-6.294zm-1.266 12.261a1.09 1.09 0 01-.655.742c-3.49 1.342-9.404 1.32-9.469 1.32-.066 0-5.978.022-9.47-1.32a1.09 1.09 0 01-.654-.742c-.261-1.003-.567-2.847-.567-5.967 0-3.12.306-4.963.567-5.967a1.09 1.09 0 01.655-.742c3.49-1.342 9.404-1.32 9.469-1.32.066 0 5.978-.022 9.47 1.32a1.092 1.092 0 01.654.742c.262 1.004.567 2.847.567 5.967 0 3.12-.305 4.964-.567 5.967z" fill="#666"/></g></symbol></svg>